<?xml version="1.0" encoding="utf-8"?>
<!-- Generator: Adobe Illustrator 16.0.0, SVG Export Plug-In . SVG Version: 6.00 Build 0)  -->
<!DOCTYPE svg PUBLIC "-//W3C//DTD SVG 1.1//EN" "http://www.w3.org/Graphics/SVG/1.1/DTD/svg11.dtd">
<svg version="1.1" id="Layer_1" xmlns="http://www.w3.org/2000/svg" xmlns:xlink="http://www.w3.org/1999/xlink" x="0px" y="0px"
	 width="50px" height="50px" viewBox="0 0 50 50" enable-background="new 0 0 50 50" xml:space="preserve">
<path fill="#CB6120" d="M40,5H10c-2.761,0-5,2.239-5,5v30c0,2.762,2.239,5,5,5h30c2.762,0,5-2.238,5-5V10C45,7.239,42.762,5,40,5z
	 M24.958,37.5c-1.795,0-3.25-1.455-3.25-3.25S23.163,31,24.958,31s3.25,1.455,3.25,3.25S26.753,37.5,24.958,37.5z M24.959,28.25
	c-1.795,0-3.25-1.455-3.25-3.25s1.455-3.25,3.25-3.25s3.25,1.455,3.25,3.25S26.754,28.25,24.959,28.25z M24.959,19
	c-1.795,0-3.25-1.455-3.25-3.25s1.455-3.25,3.25-3.25s3.25,1.455,3.25,3.25S26.754,19,24.959,19z"/>
</svg>
