<?xml version="1.0" encoding="utf-8"?>
<!-- Generator: Adobe Illustrator 16.0.0, SVG Export Plug-In . SVG Version: 6.00 Build 0)  -->
<!DOCTYPE svg PUBLIC "-//W3C//DTD SVG 1.1//EN" "http://www.w3.org/Graphics/SVG/1.1/DTD/svg11.dtd">
<svg version="1.1" id="Layer_1" xmlns="http://www.w3.org/2000/svg" xmlns:xlink="http://www.w3.org/1999/xlink" x="0px" y="0px"
	 width="23.5px" height="49.75px" viewBox="13.125 0.25 23.5 49.75" enable-background="new 13.125 0.25 23.5 49.75"
	 xml:space="preserve">
<g>
	<g>
		<g>
			<path fill="#D16A24" d="M21.415,35.805c-0.055,0-0.073-0.013-0.074-0.013c-0.043-0.065,0.082-0.448,0.553-0.829
				c0.342-0.275,0.67-0.398,0.845-0.398c0.108,0.076,0.003,0.442-0.48,0.842C21.918,35.682,21.589,35.805,21.415,35.805z"/>
			<path fill="#121212" d="M22.375,34.939c-0.068,0.084-0.158,0.177-0.271,0.271c-0.118,0.096-0.23,0.167-0.331,0.221
				c0.069-0.084,0.161-0.178,0.278-0.271C22.166,35.064,22.276,34.993,22.375,34.939 M22.739,34.313
				c-0.262,0-0.644,0.166-1.002,0.455c-0.52,0.42-0.78,0.949-0.59,1.181c0.056,0.071,0.15,0.104,0.268,0.104
				c0.262,0,0.644-0.166,1.002-0.455c0.51-0.42,0.78-0.951,0.59-1.18C22.951,34.348,22.858,34.313,22.739,34.313L22.739,34.313z"/>
		</g>
		<g>
			<path fill="#D16A24" d="M22.455,37.614c-0.055,0-0.074-0.015-0.074-0.015c0.005-0.222,0.188-0.533,0.553-0.828
				c0.342-0.274,0.671-0.397,0.846-0.397c0.107,0.074,0.004,0.44-0.482,0.843C22.959,37.489,22.63,37.614,22.455,37.614z"/>
			<path fill="#121212" d="M23.414,36.752c-0.068,0.083-0.157,0.175-0.271,0.27c-0.119,0.096-0.232,0.168-0.333,0.223
				c0.07-0.086,0.162-0.18,0.281-0.273C23.206,36.876,23.316,36.805,23.414,36.752 M23.78,36.124c-0.262,0-0.645,0.166-1.003,0.455
				c-0.52,0.42-0.79,0.948-0.59,1.18c0.056,0.071,0.15,0.105,0.268,0.105c0.262,0,0.644-0.166,1.002-0.455
				c0.51-0.423,0.78-0.951,0.59-1.183C23.991,36.157,23.898,36.124,23.78,36.124L23.78,36.124z"/>
		</g>
		<g>
			<path fill="#D16A24" d="M20.815,33.975c-0.055,0-0.073-0.013-0.074-0.013c-0.035-0.063,0.069-0.433,0.555-0.83
				c0.34-0.274,0.669-0.397,0.843-0.397c0.108,0.076,0.002,0.443-0.481,0.842C21.318,33.852,20.989,33.975,20.815,33.975z"/>
			<path fill="#121212" d="M21.775,33.109c-0.069,0.084-0.158,0.177-0.271,0.271c-0.115,0.093-0.225,0.163-0.323,0.216
				c0.069-0.082,0.158-0.175,0.271-0.269C21.566,33.234,21.676,33.164,21.775,33.109 M22.139,32.482
				c-0.262,0-0.644,0.166-1.002,0.455c-0.51,0.42-0.78,0.951-0.59,1.182c0.056,0.07,0.15,0.104,0.268,0.104
				c0.262,0,0.644-0.166,1.002-0.455c0.51-0.42,0.78-0.951,0.59-1.18C22.351,32.52,22.257,32.482,22.139,32.482L22.139,32.482z"/>
		</g>
		<g>
			<path fill="#D16A24" d="M18.194,37.744c-0.054,0-0.073-0.014-0.073-0.014c-0.042-0.063,0.083-0.448,0.554-0.83
				c0.342-0.274,0.67-0.397,0.845-0.397c0.116,0.087-0.027,0.47-0.481,0.843C18.698,37.62,18.368,37.744,18.194,37.744z"/>
			<path fill="#121212" d="M19.155,36.88c-0.068,0.083-0.158,0.177-0.271,0.271c-0.118,0.096-0.23,0.168-0.331,0.221
				c0.069-0.084,0.161-0.178,0.278-0.271C18.946,37.004,19.057,36.934,19.155,36.88 M19.519,36.253
				c-0.262,0-0.644,0.166-1.002,0.455c-0.52,0.42-0.78,0.951-0.59,1.183c0.056,0.07,0.149,0.104,0.267,0.104
				c0.262,0,0.645-0.166,1.003-0.456c0.51-0.42,0.78-0.949,0.59-1.181C19.731,36.287,19.637,36.253,19.519,36.253L19.519,36.253z"/>
		</g>
		<g>
			<path fill="#D16A24" d="M24.785,33.844c-0.055,0-0.074-0.013-0.074-0.013c-0.047-0.067,0.081-0.447,0.553-0.828
				c0.343-0.274,0.671-0.397,0.845-0.397c0.106,0.072,0.004,0.439-0.48,0.842C25.289,33.721,24.96,33.844,24.785,33.844z"/>
			<path fill="#121212" d="M25.743,32.98c-0.068,0.084-0.157,0.177-0.271,0.271c-0.118,0.097-0.231,0.168-0.332,0.222
				c0.07-0.084,0.163-0.179,0.281-0.273C25.536,33.105,25.646,33.034,25.743,32.98 M26.107,32.354c-0.262,0-0.644,0.166-1,0.455
				c-0.521,0.42-0.791,0.949-0.59,1.181c0.056,0.069,0.15,0.104,0.268,0.104c0.262,0,0.645-0.166,1.002-0.454
				c0.51-0.422,0.777-0.951,0.59-1.182C26.32,32.387,26.229,32.354,26.107,32.354L26.107,32.354z"/>
		</g>
		<g>
			<path fill="#D16A24" d="M32.227,40.02c-0.191,0-0.47-0.357-0.47-0.92c-0.008-0.531,0.234-0.935,0.456-0.939
				c0.223,0,0.477,0.395,0.477,0.921c0.008,0.532-0.235,0.935-0.457,0.938H32.227z"/>
			<path fill="#121212" d="M32.216,38.418c0.075,0.055,0.224,0.287,0.224,0.669c0.006,0.411-0.162,0.656-0.191,0.687
				c-0.066-0.028-0.239-0.271-0.239-0.683C32.001,38.714,32.143,38.479,32.216,38.418 M32.207,37.909
				c-0.393,0.01-0.71,0.539-0.7,1.188c0,0.646,0.335,1.17,0.72,1.17c0.004,0,0.008,0,0.012,0c0.39-0.011,0.711-0.541,0.701-1.188
				C32.938,38.43,32.607,37.909,32.207,37.909L32.207,37.909z"/>
		</g>
		<g>
			<path fill="#D16A24" d="M27.113,40.357c-0.221,0-0.469-0.394-0.469-0.92c-0.008-0.53,0.235-0.934,0.457-0.938
				c0.222,0,0.474,0.395,0.474,0.92c0.009,0.533-0.233,0.936-0.455,0.938H27.113z"/>
			<path fill="#121212" d="M27.105,38.758c0.074,0.057,0.222,0.29,0.222,0.669c0.006,0.41-0.161,0.656-0.195,0.685
				c-0.065-0.025-0.233-0.266-0.233-0.68C26.893,39.055,27.029,38.816,27.105,38.758 M27.098,38.249
				c-0.391,0.01-0.711,0.539-0.699,1.188c0,0.646,0.322,1.17,0.719,1.17c0.004,0,0.007,0,0.011,0c0.39-0.01,0.71-0.541,0.7-1.188
				C27.825,38.771,27.496,38.249,27.098,38.249L27.098,38.249z"/>
		</g>
		<g>
			<path fill="#D16A24" d="M29.637,35.938c-0.215,0-0.461-0.396-0.47-0.924c-0.008-0.527,0.233-0.93,0.456-0.936
				c0.221,0,0.475,0.395,0.475,0.92c0.01,0.533-0.232,0.936-0.455,0.939H29.637L29.637,35.938z"/>
			<path fill="#121212" d="M29.626,34.338c0.074,0.055,0.222,0.287,0.222,0.669c0.008,0.41-0.16,0.656-0.188,0.687
				c-0.066-0.028-0.234-0.274-0.241-0.683C29.411,34.634,29.551,34.396,29.626,34.338 M29.616,33.829
				c-0.392,0.01-0.709,0.539-0.699,1.188c0.011,0.646,0.334,1.17,0.72,1.17c0.004,0,0.008,0,0.012,0
				c0.39-0.01,0.711-0.541,0.699-1.188C30.348,34.352,30.02,33.829,29.616,33.829L29.616,33.829z"/>
		</g>
		<g>
			<path fill="#D16A24" d="M29.943,44.277c-0.227-0.004-0.479-0.396-0.479-0.92c-0.008-0.532,0.234-0.935,0.456-0.938
				c0.228,0,0.474,0.396,0.474,0.92C30.404,43.859,30.161,44.271,29.943,44.277z"/>
			<path fill="#121212" d="M29.924,42.673c0.072,0.046,0.225,0.281,0.225,0.675c0.006,0.409-0.16,0.655-0.19,0.684
				c-0.065-0.022-0.239-0.264-0.239-0.68C29.711,42.954,29.866,42.712,29.924,42.673 M29.928,42.169c-0.004,0-0.007,0-0.011,0
				c-0.392,0.011-0.71,0.539-0.7,1.188c0,0.649,0.33,1.17,0.729,1.17c0.391-0.01,0.712-0.541,0.699-1.188
				C30.646,42.693,30.32,42.169,29.928,42.169L29.928,42.169z"/>
		</g>
		<g>
			<path fill="#D16A24" d="M28.454,42.378c-0.209,0-0.459-0.401-0.47-0.924c-0.008-0.529,0.234-0.931,0.457-0.937
				c0.222,0,0.475,0.396,0.475,0.92c0.01,0.525-0.236,0.937-0.455,0.938L28.454,42.378L28.454,42.378z"/>
			<path fill="#121212" d="M28.443,40.777c0.076,0.056,0.223,0.289,0.223,0.671c0.008,0.407-0.159,0.653-0.188,0.684
				c-0.065-0.028-0.234-0.274-0.24-0.682C28.23,41.075,28.37,40.838,28.443,40.777 M28.438,40.271
				c-0.392,0.008-0.711,0.539-0.701,1.188c0.012,0.645,0.334,1.17,0.719,1.17c0.004,0,0.008,0,0.012,0
				c0.391-0.008,0.713-0.539,0.7-1.188C29.166,40.79,28.836,40.271,28.438,40.271L28.438,40.271z"/>
		</g>
		<g>
			<path fill="#D16A24" d="M31.145,37.839c-0.227-0.004-0.478-0.396-0.478-0.92c-0.008-0.534,0.233-0.937,0.456-0.938
				c0.221,0,0.475,0.394,0.475,0.92C31.605,37.43,31.363,37.829,31.145,37.839z"/>
			<path fill="#121212" d="M31.126,36.236c0.074,0.054,0.222,0.287,0.222,0.668c0.008,0.412-0.16,0.658-0.189,0.686
				c-0.065-0.021-0.239-0.265-0.239-0.679C30.911,36.534,31.051,36.296,31.126,36.236 M31.116,35.729
				c-0.392,0.008-0.709,0.539-0.699,1.189c0,0.648,0.33,1.17,0.729,1.17c0.391-0.01,0.711-0.541,0.701-1.189
				C31.848,36.249,31.52,35.729,31.116,35.729L31.116,35.729z"/>
		</g>
		<g>
			<path fill="#D16A24" d="M26.604,46.105c-0.209,0-0.494-0.09-0.765-0.244c-0.476-0.276-0.666-0.617-0.638-0.695
				c0.002-0.004,0.046-0.035,0.167-0.035c0.209,0,0.495,0.092,0.764,0.246c0.478,0.275,0.666,0.616,0.64,0.693
				C26.77,46.075,26.727,46.105,26.604,46.105z"/>
			<path fill="#121212" d="M25.682,45.441c0.1,0.033,0.209,0.082,0.324,0.148c0.116,0.066,0.211,0.137,0.285,0.202
				c-0.1-0.033-0.207-0.081-0.323-0.146C25.854,45.579,25.757,45.509,25.682,45.441 M25.369,44.88c-0.18,0-0.318,0.052-0.382,0.158
				c-0.149,0.25,0.181,0.721,0.729,1.041c0.322,0.185,0.646,0.276,0.89,0.276c0.18,0,0.317-0.053,0.383-0.157
				c0.148-0.25-0.182-0.722-0.729-1.039C25.936,44.977,25.611,44.88,25.369,44.88L25.369,44.88z"/>
		</g>
		<g>
			<path fill="#D16A24" d="M19.492,42.167c-0.211,0-0.496-0.092-0.759-0.244c-0.504-0.284-0.671-0.641-0.635-0.705l0,0
				c0.004,0,0.052-0.026,0.167-0.026c0.211,0,0.495,0.092,0.758,0.244c0.478,0.276,0.668,0.619,0.641,0.695
				C19.657,42.139,19.609,42.167,19.492,42.167z"/>
			<path fill="#121212" d="M18.561,41.497c0.101,0.032,0.214,0.083,0.335,0.151c0.118,0.068,0.213,0.142,0.289,0.207
				c-0.1-0.035-0.212-0.084-0.333-0.152C18.732,41.635,18.635,41.563,18.561,41.497 M18.264,40.939
				c-0.183,0-0.323,0.054-0.387,0.158c-0.14,0.26,0.18,0.73,0.73,1.041c0.316,0.185,0.639,0.277,0.885,0.277
				c0.182,0,0.321-0.053,0.385-0.158c0.15-0.25-0.18-0.721-0.73-1.041C18.832,41.034,18.509,40.939,18.264,40.939L18.264,40.939z"/>
		</g>
	</g>
	<g>
		<path fill="#D16A24" d="M28.537,48.88c-0.18,0-0.369-0.009-0.576-0.037c-0.533-0.069-1.876-0.211-3.059-0.331
			c-1.294-0.13-1.842-0.188-1.991-0.21l-0.129-0.015c-0.457-0.061-1.306-0.173-2.025-0.654c-0.69-0.455-1.255-1.078-1.92-1.849
			c-3.103-3.586-3.361-3.931-3.446-4.041c-0.238-0.308-0.664-0.993-0.787-1.679c-0.018-0.09-0.016-0.172-0.016-0.256l-0.059-0.355
			c-0.274-1.747-0.24-2.735,0.142-4.253c0.045-0.181,0.101-0.386,0.162-0.608c0.459-1.693,1.196-4.41,0.347-6.465
			c0.493,0.321,1.139,0.943,1.437,2.104l0.126,0.492l0.313-0.402c0.044-0.055,1.067-1.404,0.237-3.592
			c-0.759-1.999-0.864-3.008-0.864-3.802c0-0.568,0.296-1.789,0.76-2.666c-0.027,0.779,0.035,1.899,0.488,2.78
			c0.776,1.499,1.254,2.245,2.577,3.096l0.181,0.116l0.142-0.161c0.057-0.064,1.381-1.625-0.313-5.085
			c-1.725-3.523-2.171-5.088-1.908-6.7c0.087-0.536,0.201-0.984,0.314-1.346c0.09,1.092,0.499,2.687,1.918,4.178l0.481,0.505
			l-0.05-0.696c-0.001-0.016-0.113-1.621,0.194-2.987c0.322-1.436,1.172-3.002,1.523-3.61l0.156-0.264
			c0.524-0.88,1.614-2.71,1.426-4.546c-0.135-1.258-0.315-2.201-0.563-2.89c0.21,0.215,0.435,0.477,0.662,0.792
			c0.94,1.293,1.429,2.731,1.583,4.664c0.143,1.771-0.271,3.755-0.573,5.204l-0.093,0.447c-0.309,1.515-0.516,4.474,0.67,5.956
			l0.405,0.507l0.039-0.649c0.002-0.016,0.104-1.651,0.579-2.756c0.492-1.12,1.043-2.025,1.615-2.661
			c-0.115,1.051-0.289,3.064-0.123,4.599c0.275,2.55,0.883,5.746,3.147,7.837l0.22,0.202l0.161-0.251
			c0.043-0.067,1.052-1.666,0.999-3.473c-0.014-0.425-0.02-0.805-0.023-1.143c-0.006-0.356-0.012-0.666-0.021-0.935
			c0.595,1.032,1.396,2.853,1.286,5.03c-0.171,3.371-0.734,4.311-0.74,4.318l0.414,0.279c0.01-0.014,0.754-1.051,1.78-1.506
			c-0.324,0.607-0.736,1.66-0.687,3.013c0.022,0.519,0.096,1.124,0.18,1.825c0.176,1.445,0.393,3.246,0.203,4.929
			c0.009,0.708-0.157,1.399-0.482,2.032c-0.262,0.499-2.553,4.961-2.803,5.451c-0.133,0.267-0.405,0.729-0.954,1.427
			c-0.158,0.211-0.377,0.356-0.63,0.425l-0.07,0.02l-0.05,0.059c-0.046,0.053-0.109,0.104-0.203,0.17
			C30.053,48.586,29.482,48.88,28.537,48.88z M22.567,39.579c-0.34,0.01-6.667,0.021-6.73,0.021h-0.301l0.056,0.295
			c0.065,0.349,0.29,0.813,0.603,1.25c0.239,0.321,1.869,2.215,2.843,3.347l0.56,0.649c0.643,0.75,1.153,1.289,1.71,1.664
			c0.554,0.372,1.267,0.455,1.65,0.5c0.241,0.034,1.24,0.139,2.329,0.252c1.1,0.114,2.292,0.238,2.791,0.299
			c0.168,0.021,0.32,0.029,0.46,0.029c0.75,0,1.114-0.244,1.153-0.271l0.216-0.152l-0.164-0.207
			c-0.04-0.052-4.111-5.215-4.477-5.696c-0.181-0.246-1.189-1.563-1.569-1.793c-0.273-0.172-0.605-0.187-0.923-0.187H22.567z
			 M29.223,31.34c-5.046,7.46-5.018,7.893-5.005,8.074c0.019,0.414,0.313,0.775,0.759,1.327c0.137,0.168,0.289,0.354,0.453,0.569
			c0.644,0.849,4.552,5.819,4.593,5.869l0.19,0.245l0.197-0.241c0.022-0.029,0.591-0.726,0.851-1.244
			c0.17-0.332,2.819-5.479,2.819-5.479c0.282-0.538,0.401-1.145,0.347-1.749c-0.06-0.606-0.388-1.181-0.629-1.562
			c-0.099-0.153-0.47-0.77-0.931-1.527c-0.752-1.244-1.739-2.876-2.149-3.521c-0.726-1.133-0.982-1.156-1.066-1.164l-0.149-0.015
			L29.223,31.34z M28.146,30.463c-0.15,0-0.291,0.01-0.394,0.028c-0.096,0.018-0.758,0.104-1.606,0.222
			c-2.248,0.303-4.125,0.561-4.374,0.625c-0.434,0.112-0.837,0.342-1.232,0.691c-0.335,0.303-0.7,0.806-1.021,1.248l-0.757,1.033
			c-1.732,2.355-2.829,3.859-2.946,4.08c-0.182,0.362-0.198,0.627-0.199,0.655l-0.011,0.261h0.26c0,0,2.052,0.008,3.945,0.008
			c1.805,0,2.844-0.006,3.088-0.019c0.789-0.036,1.206-0.646,1.384-0.907c0.188-0.271,4.644-7.145,4.833-7.438l0.16-0.246
			l-0.27-0.118C28.8,30.496,28.425,30.463,28.146,30.463z"/>
		<path fill="#121212" d="M24.298,3.713c0.855,1.223,1.306,2.592,1.451,4.416c0.14,1.736-0.271,3.699-0.569,5.133l-0.092,0.447
			c-0.318,1.558-0.524,4.608,0.719,6.163l0.813,1.014l0.078-1.297c0.002-0.016,0.103-1.608,0.56-2.669
			c0.33-0.752,0.687-1.403,1.056-1.937c-0.095,1.105-0.17,2.595-0.039,3.799c0.279,2.594,0.9,5.847,3.229,7.995l0.438,0.404
			l0.32-0.504c0.045-0.068,1.094-1.731,1.039-3.614c-0.011-0.359-0.018-0.686-0.021-0.982c0.445,1.012,0.843,2.375,0.765,3.93
			c-0.166,3.26-0.699,4.19-0.698,4.19l0,0l0.825,0.563c0.158-0.225,0.538-0.668,1.026-1.031c-0.231,0.627-0.422,1.443-0.385,2.406
			c0.021,0.526,0.101,1.166,0.181,1.844c0.174,1.435,0.388,3.217,0.202,4.871l-0.004,0.029v0.032
			c0.011,0.636-0.146,1.287-0.453,1.88c-0.26,0.501-2.553,4.964-2.805,5.458c-0.127,0.255-0.392,0.701-0.94,1.402
			c-0.114,0.149-0.285,0.265-0.483,0.317l-0.146,0.039l-0.098,0.112c-0.047,0.054-0.13,0.108-0.142,0.118
			c-0.183,0.113-0.702,0.382-1.583,0.382c-0.191,0-0.369-0.013-0.545-0.035c-0.639-0.084-2.355-0.26-3.065-0.331
			c-1.427-0.145-1.866-0.193-1.996-0.211l-0.117-0.014c-0.436-0.059-1.248-0.164-1.922-0.615c-0.663-0.438-1.215-1.049-1.887-1.82
			c-3.078-3.562-3.333-3.899-3.424-4.021c-0.218-0.279-0.618-0.925-0.734-1.57c-0.013-0.065-0.01-0.134-0.01-0.202v-0.041
			l-0.007-0.039l-0.059-0.338c-0.264-1.687-0.231-2.648,0.141-4.13c0.045-0.179,0.1-0.382,0.161-0.604
			c0.407-1.5,1.026-3.783,0.604-5.756c0.278,0.33,0.539,0.781,0.695,1.393l0.253,0.984l0.625-0.803
			c0.047-0.062,1.153-1.52,0.273-3.836c-0.745-1.96-0.847-2.942-0.847-3.712c0-0.329,0.111-0.909,0.3-1.5
			c0.063,0.581,0.201,1.196,0.476,1.73c0.779,1.505,1.296,2.311,2.664,3.191l0.361,0.231l0.284-0.321
			c0.062-0.07,1.491-1.752-0.275-5.361c-1.698-3.468-2.139-4.999-1.886-6.55c0.009-0.055,0.018-0.11,0.028-0.163
			c0.255,0.96,0.771,2.07,1.776,3.127l0.963,1.011l-0.102-1.393c-0.001-0.016-0.111-1.581,0.189-2.914
			c0.314-1.402,1.15-2.942,1.497-3.542c0.042-0.073,0.093-0.16,0.152-0.259c0.538-0.903,1.656-2.781,1.46-4.702
			C24.49,4.824,24.403,4.227,24.298,3.713 M15.355,39.352h-0.12l0.111,0.592c0.072,0.387,0.308,0.877,0.65,1.354
			c0.223,0.3,1.531,1.822,2.852,3.354l0.56,0.649c0.657,0.767,1.18,1.319,1.761,1.71c0.604,0.405,1.356,0.493,1.76,0.54L23,47.563
			c0.163,0.024,0.965,0.108,2.26,0.244c1.1,0.113,2.289,0.236,2.787,0.299c0.18,0.021,0.342,0.029,0.49,0.029
			c0.811,0,1.225-0.266,1.3-0.318l0.231-0.166l0.141,0.178l0.396-0.482c0.023-0.031,0.607-0.748,0.879-1.289
			c0.17-0.334,1.209-2.352,1.98-3.854l0.835-1.62c0.308-0.583,0.438-1.237,0.376-1.894c-0.063-0.66-0.412-1.271-0.666-1.668
			c-0.099-0.156-0.47-0.771-0.928-1.525c-0.775-1.281-1.741-2.877-2.154-3.527c-0.695-1.088-1.023-1.257-1.255-1.277l-0.082-0.008
			l0.056-0.084l-0.537-0.24c-0.309-0.137-0.815-0.146-0.965-0.146c-0.117,0-0.289,0.007-0.438,0.032
			c-0.086,0.016-0.818,0.113-1.598,0.22c-2.731,0.368-4.165,0.566-4.399,0.632c-0.474,0.123-0.912,0.368-1.337,0.75
			c-0.354,0.316-0.727,0.832-1.057,1.285l-0.185,0.254c-0.076,0.104-0.288,0.395-0.571,0.778c-1.784,2.426-2.841,3.876-2.971,4.121
			c-0.198,0.396-0.22,0.694-0.222,0.752L15.355,39.352 M24.034,39.075c-0.076,0.198-0.071,0.276-0.066,0.345
			c0.004,0.094,0.019,0.186,0.043,0.271c-0.066-0.06-0.126-0.104-0.178-0.137c-0.102-0.063-0.208-0.111-0.318-0.145
			C23.722,39.323,23.893,39.204,24.034,39.075 M22.737,1.548c0.78,0.55,1.12,2.06,1.33,4.02c0.2,1.96-1.14,3.94-1.55,4.66
			c-0.41,0.71-1.23,2.25-1.55,3.68c-0.32,1.42-0.2,3.06-0.2,3.06c-2.37-2.49-1.81-5.31-1.81-5.31s-0.56,0.83-0.85,2.61
			c-0.29,1.78,0.29,3.5,1.93,6.85c1.64,3.35,0.35,4.81,0.35,4.81c-1.29-0.83-1.75-1.57-2.49-3c-0.73-1.42-0.38-3.56-0.38-3.56
			c-0.82,0.8-1.34,2.79-1.34,3.56s0.09,1.81,0.88,3.89c0.79,2.08-0.2,3.352-0.2,3.352c-0.55-2.141-2.25-2.59-2.25-2.59
			c1.49,2.25,0.23,5.93-0.18,7.561c-0.41,1.631-0.41,2.67-0.15,4.328c0.02,0.111,0.04,0.223,0.06,0.342c0,0.104,0,0.199,0.02,0.301
			c0.14,0.779,0.62,1.512,0.83,1.779c0.09,0.119,0.32,0.43,3.44,4.041l0.02,0.021c0.65,0.75,1.24,1.409,1.97,1.892
			c0.79,0.529,1.72,0.641,2.17,0.699l0.09,0.01c0.15,0.021,0.7,0.08,2,0.211c1.18,0.119,2.521,0.262,3.051,0.33
			c0.221,0.029,0.42,0.039,0.609,0.039c1.05,0,1.658-0.34,1.85-0.459c0.092-0.063,0.182-0.131,0.25-0.211
			c0.291-0.08,0.563-0.25,0.75-0.5c0.11-0.143,0.682-0.857,0.99-1.479c0.25-0.49,2.54-4.949,2.801-5.449
			c0.342-0.66,0.521-1.391,0.512-2.119c0.277-2.5-0.313-5.182-0.383-6.791c-0.078-2.082,1-3.432,1-3.432
			c-1.447,0.229-2.55,1.789-2.55,1.789s0.603-0.91,0.78-4.439c0.18-3.54-1.95-6.12-1.95-6.12c0.21,0.44,0.16,1.42,0.21,3.16
			c0.051,1.75-0.96,3.331-0.96,3.331c-2.34-2.161-2.84-5.561-3.067-7.681c-0.229-2.12,0.209-5.24,0.209-5.24
			c-0.938,0.77-1.672,2.07-2.182,3.23c-0.5,1.16-0.602,2.84-0.602,2.84c-1.119-1.4-0.918-4.28-0.618-5.75
			c0.3-1.47,0.83-3.72,0.67-5.72s-0.67-3.47-1.63-4.79C23.657,1.968,22.737,1.548,22.737,1.548L22.737,1.548z M19.813,39.064
			c-1.894,0-3.946-0.006-3.946-0.006s0.01-0.229,0.17-0.551c0.17-0.32,3.16-4.359,3.5-4.83c0.34-0.461,0.79-1.119,1.17-1.461
			c0.38-0.34,0.75-0.539,1.13-0.639c0.38-0.102,5.683-0.791,5.96-0.842c0.09-0.018,0.215-0.024,0.35-0.024
			c0.279,0,0.605,0.035,0.762,0.104c0,0-4.639,7.16-4.829,7.432c-0.19,0.277-0.54,0.77-1.19,0.799
			C22.606,39.063,21.255,39.064,19.813,39.064L19.813,39.064z M30.217,47.025c0,0-3.938-5.01-4.59-5.866
			c-0.66-0.861-1.14-1.313-1.16-1.763c-0.04-0.59,4.99-7.951,5.16-8.211c0,0,0.221,0.021,0.88,1.051
			c0.66,1.039,2.82,4.642,3.08,5.052c0.261,0.407,0.54,0.93,0.591,1.448c0.051,0.521-0.041,1.08-0.318,1.611
			c-0.271,0.528-2.563,4.969-2.82,5.479C30.787,46.329,30.217,47.025,30.217,47.025L30.217,47.025z M28.537,47.636
			c-0.13,0-0.271-0.009-0.432-0.026c-0.989-0.119-4.708-0.489-5.029-0.539c-0.32-0.041-1.08-0.103-1.63-0.471
			c-0.55-0.369-1.06-0.92-1.66-1.619c-0.6-0.701-3.1-3.592-3.39-3.979c-0.28-0.392-0.5-0.83-0.56-1.149c0,0,6.39-0.011,6.73-0.021
			c0.068,0,0.137-0.001,0.207-0.001c0.287,0,0.576,0.014,0.793,0.15c0.28,0.17,1.14,1.237,1.5,1.729
			c0.372,0.488,4.48,5.701,4.48,5.701S29.229,47.636,28.537,47.636L28.537,47.636z"/>
	</g>
</g>
<g>
	<g>
		<path fill="#D16A24" d="M21.53,34.58c0.52-0.42,1.09-0.58,1.27-0.35c0.19,0.229-0.08,0.76-0.59,1.18
			c-0.52,0.42-1.09,0.58-1.27,0.35C20.75,35.529,21.01,35,21.53,34.58z"/>
		<path fill="#D16A24" d="M22.57,36.391c0.52-0.42,1.09-0.58,1.27-0.351c0.19,0.229-0.08,0.76-0.59,1.181
			c-0.52,0.42-1.09,0.579-1.27,0.35C21.78,37.34,22.05,36.811,22.57,36.391z"/>
		<path fill="#D16A24" d="M20.93,32.75c0.52-0.42,1.09-0.58,1.27-0.35c0.19,0.229-0.08,0.76-0.59,1.18
			c-0.52,0.42-1.09,0.58-1.27,0.35C20.15,33.7,20.42,33.17,20.93,32.75z"/>
		<path fill="#D16A24" d="M18.31,36.52c0.52-0.42,1.09-0.58,1.27-0.35c0.19,0.23-0.08,0.76-0.59,1.18
			c-0.52,0.42-1.09,0.58-1.27,0.354C17.53,37.471,17.79,36.939,18.31,36.52z"/>
		<path fill="#D16A24" d="M24.9,32.62c0.52-0.42,1.09-0.58,1.27-0.351c0.189,0.229-0.08,0.76-0.59,1.181
			c-0.52,0.42-1.09,0.579-1.27,0.35C24.11,33.57,24.38,33.04,24.9,32.62z"/>
		<path fill="#D16A24" d="M31.3,38.91c-0.01-0.65,0.31-1.18,0.7-1.189c0.4,0,0.73,0.521,0.73,1.17
			c0.01,0.649-0.313,1.18-0.701,1.189C31.641,40.089,31.3,39.561,31.3,38.91z"/>
		<path fill="#D16A24" d="M26.189,39.25c-0.01-0.65,0.311-1.18,0.701-1.189c0.396,0,0.729,0.521,0.729,1.17
			c0.01,0.649-0.311,1.183-0.7,1.189C26.52,40.43,26.189,39.9,26.189,39.25z"/>
		<path fill="#D16A24" d="M28.71,34.83c-0.01-0.65,0.31-1.18,0.7-1.189c0.4,0,0.73,0.521,0.73,1.17
			c0.01,0.649-0.313,1.183-0.701,1.189C29.05,36.01,28.721,35.48,28.71,34.83z"/>
		<path fill="#D16A24" d="M29.01,43.17c-0.01-0.65,0.311-1.18,0.7-1.189c0.399-0.01,0.729,0.521,0.729,1.17
			c0.011,0.649-0.313,1.183-0.699,1.189C29.34,44.34,29.01,43.82,29.01,43.17z"/>
		<path fill="#D16A24" d="M27.529,41.27c-0.01-0.646,0.311-1.18,0.701-1.188c0.396,0,0.729,0.521,0.729,1.17
			c0.012,0.648-0.311,1.182-0.7,1.188C27.87,42.45,27.54,41.92,27.529,41.27z"/>
		<path fill="#D16A24" d="M30.21,36.73c-0.01-0.65,0.31-1.184,0.7-1.19c0.4,0,0.73,0.521,0.73,1.17
			c0.01,0.649-0.313,1.181-0.701,1.19C30.54,37.9,30.21,37.38,30.21,36.73z"/>
		<path fill="#D16A24" d="M24.78,44.85c0.15-0.25,0.71-0.199,1.27,0.121c0.55,0.319,0.88,0.789,0.729,1.039
			c-0.149,0.25-0.709,0.2-1.271-0.119C24.96,45.57,24.63,45.1,24.78,44.85z"/>
		<path fill="#D16A24" d="M17.67,40.91c0.15-0.25,0.72-0.2,1.27,0.119c0.55,0.32,0.88,0.791,0.73,1.041s-0.72,0.199-1.27-0.12
			C17.85,41.641,17.53,41.17,17.67,40.91z"/>
	</g>
	<path fill="#D16A24" d="M36.1,28.5c-1.449,0.23-2.55,1.79-2.55,1.79s0.601-0.91,0.78-4.44c0.18-3.54-1.95-6.12-1.95-6.12
		c0.21,0.44,0.16,1.42,0.21,3.16c0.051,1.75-0.96,3.331-0.96,3.331c-2.34-2.161-2.84-5.561-3.069-7.681
		c-0.229-2.12,0.209-5.24,0.209-5.24c-0.938,0.77-1.67,2.07-2.18,3.23c-0.5,1.16-0.6,2.84-0.6,2.84c-1.12-1.4-0.92-4.28-0.62-5.75
		c0.3-1.47,0.83-3.72,0.67-5.72s-0.67-3.47-1.63-4.79c-0.96-1.33-1.88-1.75-1.88-1.75c0.78,0.55,1.12,2.06,1.33,4.02
		c0.2,1.96-1.14,3.94-1.55,4.66c-0.41,0.71-1.23,2.25-1.55,3.68c-0.32,1.42-0.2,3.06-0.2,3.06c-2.37-2.49-1.81-5.31-1.81-5.31
		s-0.56,0.83-0.85,2.61c-0.29,1.78,0.29,3.5,1.93,6.85c1.64,3.35,0.35,4.81,0.35,4.81c-1.29-0.83-1.75-1.57-2.49-3
		c-0.73-1.42-0.38-3.56-0.38-3.56c-0.82,0.8-1.34,2.79-1.34,3.56c0,0.77,0.09,1.81,0.88,3.89s-0.2,3.351-0.2,3.351
		c-0.55-2.141-2.25-2.59-2.25-2.59c1.49,2.25,0.23,5.93-0.18,7.563c-0.41,1.63-0.41,2.67-0.15,4.326
		c0.02,0.111,0.04,0.224,0.06,0.344c0,0.104,0,0.197,0.02,0.3c0.14,0.78,0.62,1.513,0.83,1.78c0.09,0.117,0.32,0.43,3.44,4.04
		l0.02,0.021c0.65,0.75,1.24,1.409,1.97,1.893c0.79,0.529,1.72,0.64,2.17,0.699l0.09,0.01c0.15,0.021,0.7,0.08,2,0.211
		c1.18,0.119,2.52,0.26,3.051,0.33c0.219,0.029,0.42,0.039,0.609,0.039c1.05,0,1.66-0.34,1.85-0.459
		c0.09-0.063,0.18-0.131,0.25-0.211c0.291-0.08,0.563-0.25,0.75-0.5c0.11-0.143,0.68-0.859,0.99-1.479
		c0.25-0.489,2.54-4.95,2.801-5.45c0.34-0.66,0.521-1.39,0.51-2.119c0.279-2.5-0.311-5.181-0.381-6.791
		C35.02,29.85,36.1,28.5,36.1,28.5z M15.83,38.32c0.17-0.32,3.16-4.36,3.5-4.83c0.34-0.461,0.79-1.12,1.17-1.461
		c0.38-0.34,0.75-0.539,1.13-0.639c0.38-0.104,5.681-0.791,5.96-0.844c0.28-0.05,0.881-0.021,1.11,0.08c0,0-4.64,7.16-4.83,7.434
		c-0.19,0.276-0.54,0.77-1.19,0.799c-0.65,0.031-7.02,0.011-7.02,0.011S15.67,38.641,15.83,38.32z M27.9,47.42
		c-0.99-0.12-4.71-0.49-5.03-0.54c-0.32-0.04-1.08-0.101-1.63-0.47c-0.55-0.37-1.06-0.92-1.66-1.62s-3.1-3.59-3.39-3.979
		c-0.28-0.391-0.5-0.83-0.56-1.147c0,0,6.39-0.013,6.73-0.021c0.35,0,0.73-0.021,1,0.148c0.28,0.17,1.14,1.238,1.5,1.729
		c0.37,0.488,4.48,5.701,4.48,5.701S28.891,47.54,27.9,47.42z M33.65,40.16c-0.271,0.529-2.563,4.97-2.82,5.48
		c-0.25,0.5-0.82,1.196-0.82,1.196s-3.939-5.01-4.59-5.866c-0.66-0.861-1.14-1.313-1.16-1.764c-0.04-0.59,4.99-7.95,5.16-8.21
		c0,0,0.221,0.021,0.88,1.05c0.66,1.04,2.82,4.643,3.08,5.053c0.261,0.407,0.54,0.93,0.591,1.447
		C34.02,39.07,33.93,39.63,33.65,40.16z"/>
</g>
</svg>
