<?xml version="1.0" encoding="utf-8"?>
<!-- Generator: Adobe Illustrator 22.0.0, SVG Export Plug-In . SVG Version: 6.00 Build 0)  -->
<svg version="1.1" id="Layer_1" xmlns="http://www.w3.org/2000/svg" xmlns:xlink="http://www.w3.org/1999/xlink" x="0px" y="0px"
	 viewBox="0 0 23.5 49.8" style="enable-background:new 0 0 23.5 49.8;" xml:space="preserve">
<style type="text/css">
	.st0{opacity:0.39;}
	.st1{fill:#D16A24;}
	.st2{fill:#121212;}
</style>
<g class="st0">
	<g>
		<g>
			<path class="st1" d="M8.3,35.6C8.2,35.6,8.2,35.5,8.3,35.6c-0.1-0.1,0-0.5,0.5-0.8c0.3-0.3,0.7-0.4,0.8-0.4
				c0.1,0.1,0,0.4-0.5,0.8C8.8,35.4,8.5,35.6,8.3,35.6z"/>
			<path class="st2" d="M9.3,34.7C9.2,34.8,9.1,34.9,9,35c-0.1,0.1-0.2,0.2-0.3,0.2c0.1-0.1,0.2-0.2,0.3-0.3
				C9,34.8,9.2,34.7,9.3,34.7 M9.6,34.1c-0.3,0-0.6,0.2-1,0.5c-0.5,0.4-0.8,0.9-0.6,1.2c0.1,0.1,0.1,0.1,0.3,0.1
				c0.3,0,0.6-0.2,1-0.5c0.5-0.4,0.8-1,0.6-1.2C9.8,34.1,9.7,34.1,9.6,34.1L9.6,34.1z"/>
		</g>
		<g>
			<path class="st1" d="M9.3,37.4C9.3,37.4,9.3,37.3,9.3,37.4c-0.1-0.2,0.1-0.5,0.5-0.8c0.3-0.3,0.7-0.4,0.8-0.4
				c0.1,0.1,0,0.4-0.5,0.8C9.8,37.2,9.5,37.4,9.3,37.4z"/>
			<path class="st2" d="M10.3,36.5c-0.1,0.1-0.2,0.2-0.3,0.3c-0.1,0.1-0.2,0.2-0.3,0.2c0.1-0.1,0.2-0.2,0.3-0.3
				C10.1,36.6,10.2,36.6,10.3,36.5 M10.7,35.9c-0.3,0-0.6,0.2-1,0.5c-0.5,0.4-0.8,0.9-0.6,1.2c0.1,0.1,0.1,0.1,0.3,0.1
				c0.3,0,0.6-0.2,1-0.5c0.5-0.4,0.8-1,0.6-1.2C10.9,35.9,10.8,35.9,10.7,35.9L10.7,35.9z"/>
		</g>
		<g>
			<path class="st1" d="M7.7,33.7C7.6,33.7,7.6,33.7,7.7,33.7c-0.1-0.1,0-0.4,0.5-0.8c0.3-0.3,0.7-0.4,0.8-0.4
				c0.1,0.1,0,0.4-0.5,0.8C8.2,33.6,7.9,33.7,7.7,33.7z"/>
			<path class="st2" d="M8.6,32.9c-0.1,0.1-0.2,0.2-0.3,0.3c-0.1,0.1-0.2,0.2-0.3,0.2c0.1-0.1,0.2-0.2,0.3-0.3
				C8.4,33,8.6,32.9,8.6,32.9 M9,32.2c-0.3,0-0.6,0.2-1,0.5c-0.5,0.4-0.8,1-0.6,1.2C7.5,33.9,7.6,34,7.7,34c0.3,0,0.6-0.2,1-0.5
				c0.5-0.4,0.8-1,0.6-1.2C9.2,32.3,9.1,32.2,9,32.2L9,32.2z"/>
		</g>
		<g>
			<path class="st1" d="M5.1,37.5C5,37.5,5,37.5,5.1,37.5c-0.1-0.1,0-0.5,0.5-0.8c0.3-0.3,0.7-0.4,0.8-0.4c0.1,0.1,0,0.5-0.5,0.8
				C5.6,37.4,5.2,37.5,5.1,37.5z"/>
			<path class="st2" d="M6,36.6c-0.1,0.1-0.2,0.2-0.3,0.3c-0.1,0.1-0.2,0.2-0.3,0.2c0.1-0.1,0.2-0.2,0.3-0.3
				C5.8,36.8,5.9,36.7,6,36.6 M6.4,36c-0.3,0-0.6,0.2-1,0.5c-0.5,0.4-0.8,1-0.6,1.2c0.1,0.1,0.1,0.1,0.3,0.1c0.3,0,0.6-0.2,1-0.5
				c0.5-0.4,0.8-0.9,0.6-1.2C6.6,36,6.5,36,6.4,36L6.4,36z"/>
		</g>
		<g>
			<path class="st1" d="M11.7,33.6C11.6,33.6,11.6,33.6,11.7,33.6c-0.1-0.1,0-0.5,0.5-0.8c0.3-0.3,0.7-0.4,0.8-0.4
				c0.1,0.1,0,0.4-0.5,0.8C12.2,33.5,11.8,33.6,11.7,33.6z"/>
			<path class="st2" d="M12.6,32.7c-0.1,0.1-0.2,0.2-0.3,0.3c-0.1,0.1-0.2,0.2-0.3,0.2c0.1-0.1,0.2-0.2,0.3-0.3
				C12.4,32.9,12.5,32.8,12.6,32.7 M13,32.1c-0.3,0-0.6,0.2-1,0.5c-0.5,0.4-0.8,0.9-0.6,1.2c0.1,0.1,0.1,0.1,0.3,0.1
				c0.3,0,0.6-0.2,1-0.5c0.5-0.4,0.8-1,0.6-1.2C13.2,32.1,13.1,32.1,13,32.1L13,32.1z"/>
		</g>
		<g>
			<path class="st1" d="M19.1,39.8c-0.2,0-0.5-0.4-0.5-0.9c0-0.5,0.2-0.9,0.5-0.9c0.2,0,0.5,0.4,0.5,0.9
				C19.6,39.4,19.3,39.8,19.1,39.8C19.1,39.8,19.1,39.8,19.1,39.8z"/>
			<path class="st2" d="M19.1,38.2c0.1,0.1,0.2,0.3,0.2,0.7c0,0.4-0.2,0.7-0.2,0.7c-0.1,0-0.2-0.3-0.2-0.7
				C18.9,38.5,19,38.2,19.1,38.2 M19.1,37.7c-0.4,0-0.7,0.5-0.7,1.2c0,0.6,0.3,1.2,0.7,1.2c0,0,0,0,0,0c0.4,0,0.7-0.5,0.7-1.2
				C19.8,38.2,19.5,37.7,19.1,37.7L19.1,37.7z"/>
		</g>
		<g>
			<path class="st1" d="M14,40.1c-0.2,0-0.5-0.4-0.5-0.9c0-0.5,0.2-0.9,0.5-0.9c0.2,0,0.5,0.4,0.5,0.9C14.5,39.7,14.2,40.1,14,40.1
				L14,40.1z"/>
			<path class="st2" d="M14,38.5c0.1,0.1,0.2,0.3,0.2,0.7c0,0.4-0.2,0.7-0.2,0.7c-0.1,0-0.2-0.3-0.2-0.7
				C13.8,38.8,13.9,38.6,14,38.5 M14,38c-0.4,0-0.7,0.5-0.7,1.2c0,0.6,0.3,1.2,0.7,1.2c0,0,0,0,0,0c0.4,0,0.7-0.5,0.7-1.2
				C14.7,38.5,14.4,38,14,38L14,38z"/>
		</g>
		<g>
			<path class="st1" d="M16.5,35.7c-0.2,0-0.5-0.4-0.5-0.9c0-0.5,0.2-0.9,0.5-0.9c0.2,0,0.5,0.4,0.5,0.9
				C17,35.3,16.7,35.7,16.5,35.7L16.5,35.7L16.5,35.7z"/>
			<path class="st2" d="M16.5,34.1c0.1,0.1,0.2,0.3,0.2,0.7c0,0.4-0.2,0.7-0.2,0.7c-0.1,0-0.2-0.3-0.2-0.7
				C16.3,34.4,16.4,34.1,16.5,34.1 M16.5,33.6c-0.4,0-0.7,0.5-0.7,1.2c0,0.6,0.3,1.2,0.7,1.2c0,0,0,0,0,0c0.4,0,0.7-0.5,0.7-1.2
				C17.2,34.1,16.9,33.6,16.5,33.6L16.5,33.6z"/>
		</g>
		<g>
			<path class="st1" d="M16.8,44c-0.2,0-0.5-0.4-0.5-0.9c0-0.5,0.2-0.9,0.5-0.9c0.2,0,0.5,0.4,0.5,0.9C17.3,43.6,17,44,16.8,44z"/>
			<path class="st2" d="M16.8,42.4c0.1,0,0.2,0.3,0.2,0.7c0,0.4-0.2,0.7-0.2,0.7c-0.1,0-0.2-0.3-0.2-0.7
				C16.6,42.7,16.7,42.5,16.8,42.4 M16.8,41.9C16.8,41.9,16.8,41.9,16.8,41.9c-0.4,0-0.7,0.5-0.7,1.2c0,0.6,0.3,1.2,0.7,1.2
				c0.4,0,0.7-0.5,0.7-1.2C17.5,42.4,17.2,41.9,16.8,41.9L16.8,41.9z"/>
		</g>
		<g>
			<path class="st1" d="M15.3,42.1c-0.2,0-0.5-0.4-0.5-0.9c0-0.5,0.2-0.9,0.5-0.9c0.2,0,0.5,0.4,0.5,0.9
				C15.8,41.7,15.6,42.1,15.3,42.1L15.3,42.1L15.3,42.1z"/>
			<path class="st2" d="M15.3,40.5c0.1,0.1,0.2,0.3,0.2,0.7c0,0.4-0.2,0.7-0.2,0.7c-0.1,0-0.2-0.3-0.2-0.7
				C15.1,40.8,15.2,40.6,15.3,40.5 M15.3,40c-0.4,0-0.7,0.5-0.7,1.2c0,0.6,0.3,1.2,0.7,1.2c0,0,0,0,0,0c0.4,0,0.7-0.5,0.7-1.2
				C16,40.5,15.7,40,15.3,40L15.3,40z"/>
		</g>
		<g>
			<path class="st1" d="M18,37.6c-0.2,0-0.5-0.4-0.5-0.9c0-0.5,0.2-0.9,0.5-0.9c0.2,0,0.5,0.4,0.5,0.9C18.5,37.2,18.2,37.6,18,37.6z
				"/>
			<path class="st2" d="M18,36c0.1,0.1,0.2,0.3,0.2,0.7c0,0.4-0.2,0.7-0.2,0.7c-0.1,0-0.2-0.3-0.2-0.7C17.8,36.3,17.9,36,18,36
				 M18,35.5c-0.4,0-0.7,0.5-0.7,1.2c0,0.6,0.3,1.2,0.7,1.2c0.4,0,0.7-0.5,0.7-1.2C18.7,36,18.4,35.5,18,35.5L18,35.5z"/>
		</g>
		<g>
			<path class="st1" d="M13.5,45.9c-0.2,0-0.5-0.1-0.8-0.2c-0.5-0.3-0.7-0.6-0.6-0.7c0,0,0,0,0.2,0c0.2,0,0.5,0.1,0.8,0.2
				c0.5,0.3,0.7,0.6,0.6,0.7C13.6,45.8,13.6,45.9,13.5,45.9z"/>
			<path class="st2" d="M12.6,45.2c0.1,0,0.2,0.1,0.3,0.1c0.1,0.1,0.2,0.1,0.3,0.2c-0.1,0-0.2-0.1-0.3-0.1
				C12.7,45.3,12.6,45.3,12.6,45.2 M12.2,44.6c-0.2,0-0.3,0.1-0.4,0.2c-0.1,0.3,0.2,0.7,0.7,1c0.3,0.2,0.6,0.3,0.9,0.3
				c0.2,0,0.3-0.1,0.4-0.2c0.1-0.3-0.2-0.7-0.7-1C12.8,44.7,12.5,44.6,12.2,44.6L12.2,44.6z"/>
		</g>
		<g>
			<path class="st1" d="M6.4,41.9c-0.2,0-0.5-0.1-0.8-0.2C5.1,41.4,4.9,41,5,41l0,0c0,0,0.1,0,0.2,0c0.2,0,0.5,0.1,0.8,0.2
				c0.5,0.3,0.7,0.6,0.6,0.7C6.5,41.9,6.5,41.9,6.4,41.9z"/>
			<path class="st2" d="M5.4,41.2c0.1,0,0.2,0.1,0.3,0.2c0.1,0.1,0.2,0.1,0.3,0.2c-0.1,0-0.2-0.1-0.3-0.2
				C5.6,41.4,5.5,41.3,5.4,41.2 M5.1,40.7c-0.2,0-0.3,0.1-0.4,0.2c-0.1,0.3,0.2,0.7,0.7,1c0.3,0.2,0.6,0.3,0.9,0.3
				c0.2,0,0.3-0.1,0.4-0.2c0.1-0.3-0.2-0.7-0.7-1C5.7,40.8,5.4,40.7,5.1,40.7L5.1,40.7z"/>
		</g>
	</g>
	<g>
		<path class="st1" d="M15.4,48.6c-0.2,0-0.4,0-0.6,0c-0.5-0.1-1.9-0.2-3.1-0.3c-1.3-0.1-1.8-0.2-2-0.2l-0.1,0
			c-0.5-0.1-1.3-0.2-2-0.7c-0.7-0.5-1.3-1.1-1.9-1.8c-3.1-3.6-3.4-3.9-3.4-4c-0.2-0.3-0.7-1-0.8-1.7c0-0.1,0-0.2,0-0.3l-0.1-0.4
			c-0.3-1.7-0.2-2.7,0.1-4.3c0-0.2,0.1-0.4,0.2-0.6c0.5-1.7,1.2-4.4,0.3-6.5c0.5,0.3,1.1,0.9,1.4,2.1l0.1,0.5l0.3-0.4
			C4,30,5,28.7,4.2,26.5c-0.8-2-0.9-3-0.9-3.8c0-0.6,0.3-1.8,0.8-2.7c0,0.8,0,1.9,0.5,2.8c0.8,1.5,1.3,2.2,2.6,3.1L7.3,26l0.1-0.2
			c0.1-0.1,1.4-1.6-0.3-5.1c-1.7-3.5-2.2-5.1-1.9-6.7c0.1-0.5,0.2-1,0.3-1.3c0.1,1.1,0.5,2.7,1.9,4.2l0.5,0.5l0-0.7
			c0,0-0.1-1.6,0.2-3c0.3-1.4,1.2-3,1.5-3.6l0.2-0.3c0.5-0.9,1.6-2.7,1.4-4.5c-0.1-1.3-0.3-2.2-0.6-2.9c0.2,0.2,0.4,0.5,0.7,0.8
			c0.9,1.3,1.4,2.7,1.6,4.7c0.1,1.8-0.3,3.8-0.6,5.2l-0.1,0.4c-0.3,1.5-0.5,4.5,0.7,6l0.4,0.5l0-0.6c0,0,0.1-1.7,0.6-2.8
			c0.5-1.1,1-2,1.6-2.7c-0.1,1.1-0.3,3.1-0.1,4.6c0.3,2.5,0.9,5.7,3.1,7.8l0.2,0.2l0.2-0.3c0-0.1,1.1-1.7,1-3.5c0-0.4,0-0.8,0-1.1
			c0-0.4,0-0.7,0-0.9c0.6,1,1.4,2.9,1.3,5c-0.2,3.4-0.7,4.3-0.7,4.3l0.4,0.3c0,0,0.8-1.1,1.8-1.5c-0.3,0.6-0.7,1.7-0.7,3
			c0,0.5,0.1,1.1,0.2,1.8c0.2,1.4,0.4,3.2,0.2,4.9c0,0.7-0.2,1.4-0.5,2c-0.3,0.5-2.6,5-2.8,5.5c-0.1,0.3-0.4,0.7-1,1.4
			c-0.2,0.2-0.4,0.4-0.6,0.4l-0.1,0l0,0.1c0,0.1-0.1,0.1-0.2,0.2C16.9,48.3,16.4,48.6,15.4,48.6z M9.4,39.3c-0.3,0-6.7,0-6.7,0H2.4
			l0.1,0.3c0.1,0.3,0.3,0.8,0.6,1.3c0.2,0.3,1.9,2.2,2.8,3.3l0.6,0.6c0.6,0.8,1.2,1.3,1.7,1.7c0.6,0.4,1.3,0.5,1.6,0.5
			c0.2,0,1.2,0.1,2.3,0.3c1.1,0.1,2.3,0.2,2.8,0.3c0.2,0,0.3,0,0.5,0c0.8,0,1.1-0.2,1.2-0.3l0.2-0.2L16.6,47c0-0.1-4.1-5.2-4.5-5.7
			c-0.2-0.2-1.2-1.6-1.6-1.8c-0.3-0.2-0.6-0.2-0.9-0.2C9.6,39.3,9.4,39.3,9.4,39.3z M16.1,31.1c-5,7.5-5,7.9-5,8.1
			c0,0.4,0.3,0.8,0.8,1.3c0.1,0.2,0.3,0.4,0.5,0.6c0.6,0.8,4.6,5.8,4.6,5.9l0.2,0.2l0.2-0.2c0,0,0.6-0.7,0.9-1.2
			c0.2-0.3,2.8-5.5,2.8-5.5c0.3-0.5,0.4-1.1,0.3-1.7c-0.1-0.6-0.4-1.2-0.6-1.6c-0.1-0.2-0.5-0.8-0.9-1.5c-0.8-1.2-1.7-2.9-2.1-3.5
			c-0.7-1.1-1-1.2-1.1-1.2l-0.1,0L16.1,31.1z M15,30.2c-0.1,0-0.3,0-0.4,0c-0.1,0-0.8,0.1-1.6,0.2c-2.2,0.3-4.1,0.6-4.4,0.6
			c-0.4,0.1-0.8,0.3-1.2,0.7c-0.3,0.3-0.7,0.8-1,1.2l-0.8,1c-1.7,2.4-2.8,3.9-2.9,4.1c-0.2,0.4-0.2,0.6-0.2,0.7l0,0.3h0.3
			c0,0,2.1,0,3.9,0c1.8,0,2.8,0,3.1,0c0.8,0,1.2-0.6,1.4-0.9c0.2-0.3,4.6-7.1,4.8-7.4l0.2-0.2l-0.3-0.1C15.7,30.2,15.3,30.2,15,30.2
			z"/>
		<path class="st2" d="M11.2,3.5c0.9,1.2,1.3,2.6,1.5,4.4c0.1,1.7-0.3,3.7-0.6,5.1L12,13.5c-0.3,1.6-0.5,4.6,0.7,6.2l0.8,1l0.1-1.3
			c0,0,0.1-1.6,0.6-2.7c0.3-0.8,0.7-1.4,1.1-1.9c-0.1,1.1-0.2,2.6,0,3.8c0.3,2.6,0.9,5.8,3.2,8l0.4,0.4l0.3-0.5c0-0.1,1.1-1.7,1-3.6
			c0-0.4,0-0.7,0-1c0.4,1,0.8,2.4,0.8,3.9C20.8,29,20.2,30,20.2,30l0,0l0.8,0.6c0.2-0.2,0.5-0.7,1-1c-0.2,0.6-0.4,1.4-0.4,2.4
			c0,0.5,0.1,1.2,0.2,1.8c0.2,1.4,0.4,3.2,0.2,4.9l0,0v0c0,0.6-0.1,1.3-0.5,1.9c-0.3,0.5-2.6,5-2.8,5.5c-0.1,0.3-0.4,0.7-0.9,1.4
			c-0.1,0.1-0.3,0.3-0.5,0.3l-0.1,0l-0.1,0.1c0,0.1-0.1,0.1-0.1,0.1c-0.2,0.1-0.7,0.4-1.6,0.4c-0.2,0-0.4,0-0.5,0
			c-0.6-0.1-2.4-0.3-3.1-0.3c-1.4-0.1-1.9-0.2-2-0.2l-0.1,0c-0.4-0.1-1.2-0.2-1.9-0.6c-0.7-0.4-1.2-1-1.9-1.8
			c-3.1-3.6-3.3-3.9-3.4-4c-0.2-0.3-0.6-0.9-0.7-1.6c0-0.1,0-0.1,0-0.2v0l0,0l-0.1-0.3c-0.3-1.7-0.2-2.6,0.1-4.1
			c0-0.2,0.1-0.4,0.2-0.6c0.4-1.5,1-3.8,0.6-5.8C2.8,29,3.1,29.4,3.3,30l0.3,1l0.6-0.8c0-0.1,1.2-1.5,0.3-3.8
			c-0.7-2-0.8-2.9-0.8-3.7c0-0.3,0.1-0.9,0.3-1.5c0.1,0.6,0.2,1.2,0.5,1.7c0.8,1.5,1.3,2.3,2.7,3.2l0.4,0.2L7.6,26
			c0.1-0.1,1.5-1.8-0.3-5.4c-1.7-3.5-2.1-5-1.9-6.6c0-0.1,0-0.1,0-0.2c0.3,1,0.8,2.1,1.8,3.1l1,1l-0.1-1.4c0,0-0.1-1.6,0.2-2.9
			c0.3-1.4,1.1-2.9,1.5-3.5c0-0.1,0.1-0.2,0.2-0.3c0.5-0.9,1.7-2.8,1.5-4.7C11.4,4.6,11.3,4,11.2,3.5 M2.2,39.1H2.1l0.1,0.6
			c0.1,0.4,0.3,0.9,0.6,1.4c0.2,0.3,1.5,1.8,2.9,3.4l0.6,0.6c0.7,0.8,1.2,1.3,1.8,1.7c0.6,0.4,1.4,0.5,1.8,0.5l0.1,0
			c0.2,0,1,0.1,2.3,0.2c1.1,0.1,2.3,0.2,2.8,0.3c0.2,0,0.3,0,0.5,0c0.8,0,1.2-0.3,1.3-0.3l0.2-0.2l0.1,0.2l0.4-0.5
			c0,0,0.6-0.7,0.9-1.3c0.2-0.3,1.2-2.4,2-3.9l0.8-1.6c0.3-0.6,0.4-1.2,0.4-1.9c-0.1-0.7-0.4-1.3-0.7-1.7c-0.1-0.2-0.5-0.8-0.9-1.5
			c-0.8-1.3-1.7-2.9-2.2-3.5c-0.7-1.1-1-1.3-1.3-1.3l-0.1,0l0.1-0.1L16,30.1C15.7,30,15.2,30,15,30c-0.1,0-0.3,0-0.4,0
			c-0.1,0-0.8,0.1-1.6,0.2c-2.7,0.4-4.2,0.6-4.4,0.6c-0.5,0.1-0.9,0.4-1.3,0.8c-0.4,0.3-0.7,0.8-1.1,1.3L6,33.1
			c-0.1,0.1-0.3,0.4-0.6,0.8c-1.8,2.4-2.8,3.9-3,4.1c-0.2,0.4-0.2,0.7-0.2,0.8L2.2,39.1 M10.9,38.8c-0.1,0.2-0.1,0.3-0.1,0.3
			c0,0.1,0,0.2,0,0.3c-0.1-0.1-0.1-0.1-0.2-0.1c-0.1-0.1-0.2-0.1-0.3-0.1C10.6,39.1,10.8,39,10.9,38.8 M9.6,1.3
			c0.8,0.6,1.1,2.1,1.3,4c0.2,2-1.1,3.9-1.5,4.7c-0.4,0.7-1.2,2.3-1.5,3.7c-0.3,1.4-0.2,3.1-0.2,3.1c-2.4-2.5-1.8-5.3-1.8-5.3
			S5.3,12.2,5,14s0.3,3.5,1.9,6.8s0.4,4.8,0.4,4.8c-1.3-0.8-1.8-1.6-2.5-3c-0.7-1.4-0.4-3.6-0.4-3.6c-0.8,0.8-1.3,2.8-1.3,3.6
			s0.1,1.8,0.9,3.9c0.8,2.1-0.2,3.4-0.2,3.4c-0.5-2.1-2.3-2.6-2.3-2.6c1.5,2.3,0.2,5.9-0.2,7.6s-0.4,2.7-0.1,4.3
			c0,0.1,0,0.2,0.1,0.3c0,0.1,0,0.2,0,0.3c0.1,0.8,0.6,1.5,0.8,1.8c0.1,0.1,0.3,0.4,3.4,4l0,0c0.6,0.8,1.2,1.4,2,1.9
			c0.8,0.5,1.7,0.6,2.2,0.7l0.1,0c0.1,0,0.7,0.1,2,0.2c1.2,0.1,2.5,0.3,3.1,0.3c0.2,0,0.4,0,0.6,0c1,0,1.7-0.3,1.9-0.5
			c0.1-0.1,0.2-0.1,0.3-0.2c0.3-0.1,0.6-0.3,0.8-0.5c0.1-0.1,0.7-0.9,1-1.5c0.3-0.5,2.5-4.9,2.8-5.4c0.3-0.7,0.5-1.4,0.5-2.1
			c0.3-2.5-0.3-5.2-0.4-6.8c-0.1-2.1,1-3.4,1-3.4c-1.4,0.2-2.5,1.8-2.5,1.8s0.6-0.9,0.8-4.4c0.2-3.5-2-6.1-2-6.1
			c0.2,0.4,0.2,1.4,0.2,3.2c0.1,1.8-1,3.3-1,3.3c-2.3-2.2-2.8-5.6-3.1-7.7c-0.2-2.1,0.2-5.2,0.2-5.2c-0.9,0.8-1.7,2.1-2.2,3.2
			c-0.5,1.2-0.6,2.8-0.6,2.8c-1.1-1.4-0.9-4.3-0.6-5.8s0.8-3.7,0.7-5.7s-0.7-3.5-1.6-4.8C10.5,1.7,9.6,1.3,9.6,1.3L9.6,1.3z
			 M6.7,38.8c-1.9,0-3.9,0-3.9,0s0-0.2,0.2-0.6c0.2-0.3,3.2-4.4,3.5-4.8C6.8,33,7.2,32.3,7.6,32c0.4-0.3,0.8-0.5,1.1-0.6
			c0.4-0.1,5.7-0.8,6-0.8c0.1,0,0.2,0,0.4,0c0.3,0,0.6,0,0.8,0.1c0,0-4.6,7.2-4.8,7.4c-0.2,0.3-0.5,0.8-1.2,0.8
			C9.5,38.8,8.1,38.8,6.7,38.8L6.7,38.8z M17.1,46.8c0,0-3.9-5-4.6-5.9c-0.7-0.9-1.1-1.3-1.2-1.8c0-0.6,5-8,5.2-8.2
			c0,0,0.2,0,0.9,1.1c0.7,1,2.8,4.6,3.1,5.1c0.3,0.4,0.5,0.9,0.6,1.4c0.1,0.5,0,1.1-0.3,1.6c-0.3,0.5-2.6,5-2.8,5.5
			C17.7,46.1,17.1,46.8,17.1,46.8L17.1,46.8z M15.4,47.4c-0.1,0-0.3,0-0.4,0c-1-0.1-4.7-0.5-5-0.5c-0.3,0-1.1-0.1-1.6-0.5
			c-0.5-0.4-1.1-0.9-1.7-1.6c-0.6-0.7-3.1-3.6-3.4-4c-0.3-0.4-0.5-0.8-0.6-1.1c0,0,6.4,0,6.7,0c0.1,0,0.1,0,0.2,0
			c0.3,0,0.6,0,0.8,0.2c0.3,0.2,1.1,1.2,1.5,1.7c0.4,0.5,4.5,5.7,4.5,5.7S16.1,47.4,15.4,47.4L15.4,47.4z"/>
	</g>
</g>
<g>
	<g>
		<path class="st1" d="M8.4,34.3c0.5-0.4,1.1-0.6,1.3-0.3c0.2,0.2-0.1,0.8-0.6,1.2c-0.5,0.4-1.1,0.6-1.3,0.3
			C7.6,35.3,7.9,34.8,8.4,34.3z"/>
		<path class="st1" d="M9.4,36.1c0.5-0.4,1.1-0.6,1.3-0.4c0.2,0.2-0.1,0.8-0.6,1.2c-0.5,0.4-1.1,0.6-1.3,0.3
			C8.7,37.1,8.9,36.6,9.4,36.1z"/>
		<path class="st1" d="M7.8,32.5c0.5-0.4,1.1-0.6,1.3-0.3c0.2,0.2-0.1,0.8-0.6,1.2c-0.5,0.4-1.1,0.6-1.3,0.3
			C7,33.5,7.3,32.9,7.8,32.5z"/>
		<path class="st1" d="M5.2,36.3c0.5-0.4,1.1-0.6,1.3-0.3c0.2,0.2-0.1,0.8-0.6,1.2c-0.5,0.4-1.1,0.6-1.3,0.4
			C4.4,37.2,4.7,36.7,5.2,36.3z"/>
		<path class="st1" d="M11.8,32.4c0.5-0.4,1.1-0.6,1.3-0.4c0.2,0.2-0.1,0.8-0.6,1.2c-0.5,0.4-1.1,0.6-1.3,0.3
			C11,33.3,11.3,32.8,11.8,32.4z"/>
		<path class="st1" d="M18.2,38.7c0-0.7,0.3-1.2,0.7-1.2c0.4,0,0.7,0.5,0.7,1.2c0,0.6-0.3,1.2-0.7,1.2
			C18.5,39.8,18.2,39.3,18.2,38.7z"/>
		<path class="st1" d="M13.1,39c0-0.7,0.3-1.2,0.7-1.2c0.4,0,0.7,0.5,0.7,1.2c0,0.6-0.3,1.2-0.7,1.2C13.4,40.2,13.1,39.7,13.1,39z"
			/>
		<path class="st1" d="M15.6,34.6c0-0.7,0.3-1.2,0.7-1.2c0.4,0,0.7,0.5,0.7,1.2c0,0.6-0.3,1.2-0.7,1.2
			C15.9,35.8,15.6,35.2,15.6,34.6z"/>
		<path class="st1" d="M15.9,42.9c0-0.7,0.3-1.2,0.7-1.2c0.4,0,0.7,0.5,0.7,1.2c0,0.6-0.3,1.2-0.7,1.2
			C16.2,44.1,15.9,43.6,15.9,42.9z"/>
		<path class="st1" d="M14.4,41c0-0.6,0.3-1.2,0.7-1.2c0.4,0,0.7,0.5,0.7,1.2c0,0.6-0.3,1.2-0.7,1.2C14.7,42.2,14.4,41.7,14.4,41z"
			/>
		<path class="st1" d="M17.1,36.5c0-0.7,0.3-1.2,0.7-1.2c0.4,0,0.7,0.5,0.7,1.2c0,0.6-0.3,1.2-0.7,1.2
			C17.4,37.7,17.1,37.1,17.1,36.5z"/>
		<path class="st1" d="M11.7,44.6c0.1-0.3,0.7-0.2,1.3,0.1c0.5,0.3,0.9,0.8,0.7,1c-0.1,0.3-0.7,0.2-1.3-0.1
			C11.8,45.3,11.5,44.8,11.7,44.6z"/>
		<path class="st1" d="M4.5,40.7c0.1-0.3,0.7-0.2,1.3,0.1c0.5,0.3,0.9,0.8,0.7,1S5.8,42,5.3,41.7C4.7,41.4,4.4,40.9,4.5,40.7z"/>
	</g>
	<path class="st1" d="M23,28.3c-1.4,0.2-2.5,1.8-2.5,1.8s0.6-0.9,0.8-4.4c0.2-3.5-2-6.1-2-6.1c0.2,0.4,0.2,1.4,0.2,3.2
		c0.1,1.8-1,3.3-1,3.3c-2.3-2.2-2.8-5.6-3.1-7.7s0.2-5.2,0.2-5.2c-0.9,0.8-1.7,2.1-2.2,3.2c-0.5,1.2-0.6,2.8-0.6,2.8
		c-1.1-1.4-0.9-4.3-0.6-5.8s0.8-3.7,0.7-5.7s-0.7-3.5-1.6-4.8c-1-1.3-1.9-1.8-1.9-1.8c0.8,0.5,1.1,2.1,1.3,4c0.2,2-1.1,3.9-1.5,4.7
		C8.8,10.5,8,12,7.6,13.5c-0.3,1.4-0.2,3.1-0.2,3.1c-2.4-2.5-1.8-5.3-1.8-5.3S5.1,12,4.8,13.8s0.3,3.5,1.9,6.8s0.4,4.8,0.4,4.8
		c-1.3-0.8-1.8-1.6-2.5-3c-0.7-1.4-0.4-3.6-0.4-3.6c-0.8,0.8-1.3,2.8-1.3,3.6s0.1,1.8,0.9,3.9s-0.2,3.4-0.2,3.4
		c-0.5-2.1-2.3-2.6-2.3-2.6c1.5,2.3,0.2,5.9-0.2,7.6c-0.4,1.6-0.4,2.7-0.1,4.3c0,0.1,0,0.2,0.1,0.3c0,0.1,0,0.2,0,0.3
		c0.1,0.8,0.6,1.5,0.8,1.8c0.1,0.1,0.3,0.4,3.4,4l0,0c0.6,0.8,1.2,1.4,2,1.9C8.1,47.9,9,48,9.5,48.1l0.1,0c0.1,0,0.7,0.1,2,0.2
		c1.2,0.1,2.5,0.3,3.1,0.3c0.2,0,0.4,0,0.6,0c1,0,1.7-0.3,1.9-0.5c0.1-0.1,0.2-0.1,0.3-0.2c0.3-0.1,0.6-0.3,0.8-0.5
		c0.1-0.1,0.7-0.9,1-1.5c0.3-0.5,2.5-5,2.8-5.5c0.3-0.7,0.5-1.4,0.5-2.1c0.3-2.5-0.3-5.2-0.4-6.8C21.9,29.6,23,28.3,23,28.3z
		 M2.7,38.1c0.2-0.3,3.2-4.4,3.5-4.8c0.3-0.5,0.8-1.1,1.2-1.5c0.4-0.3,0.8-0.5,1.1-0.6c0.4-0.1,5.7-0.8,6-0.8c0.3,0,0.9,0,1.1,0.1
		c0,0-4.6,7.2-4.8,7.4c-0.2,0.3-0.5,0.8-1.2,0.8c-0.6,0-7,0-7,0S2.5,38.4,2.7,38.1z M14.8,47.2c-1-0.1-4.7-0.5-5-0.5
		c-0.3,0-1.1-0.1-1.6-0.5c-0.5-0.4-1.1-0.9-1.7-1.6s-3.1-3.6-3.4-4c-0.3-0.4-0.5-0.8-0.6-1.1c0,0,6.4,0,6.7,0c0.4,0,0.7,0,1,0.1
		c0.3,0.2,1.1,1.2,1.5,1.7c0.4,0.5,4.5,5.7,4.5,5.7S15.8,47.3,14.8,47.2z M20.5,39.9c-0.3,0.5-2.6,5-2.8,5.5
		c-0.3,0.5-0.8,1.2-0.8,1.2s-3.9-5-4.6-5.9c-0.7-0.9-1.1-1.3-1.2-1.8c0-0.6,5-8,5.2-8.2c0,0,0.2,0,0.9,1c0.7,1,2.8,4.6,3.1,5.1
		c0.3,0.4,0.5,0.9,0.6,1.4C20.9,38.8,20.8,39.4,20.5,39.9z"/>
</g>
</svg>
