<?xml version="1.0" encoding="utf-8"?>
<!-- Generator: Adobe Illustrator 22.0.0, SVG Export Plug-In . SVG Version: 6.00 Build 0)  -->
<svg version="1.1" id="Layer_1" xmlns="http://www.w3.org/2000/svg" xmlns:xlink="http://www.w3.org/1999/xlink" x="0px" y="0px"
	 viewBox="0 0 250 500" style="enable-background:new 0 0 250 500;" xml:space="preserve">
<style type="text/css">
	.st0{fill:#FFFFFF;stroke:#F48226;stroke-width:14;stroke-linecap:round;stroke-linejoin:round;stroke-miterlimit:10;}
	.st1{fill:#BB86FC;}
</style>
<symbol  id="New_Symbol_1_1_" viewBox="-47.5 -48.7 94.9 97.4">
	<g>
		<path class="st0" d="M-40.1-20.1c0,0-0.5,1-0.4,2.7c0.1,1.7,5,25.2,5.5,27.9c0.5,2.7,1.2,6.4,2.2,8.7c1,2.2,2.2,3.8,3.6,5
			S-6.2,39.1-5,39.8c1.1,0.8,3.8,1.9,5,1.9c0,0-5.8-40.3-6-41.9C-6.4-1.7-6.9-4.6-9.6-6C-12.4-7.4-40.1-20.1-40.1-20.1z"/>
		<path class="st0" d="M-38.6-23.6c0,0,27.6,12.9,29.1,13.6s3.1,1.5,4.6,1.4c1.5-0.2,7.4-3.1,10-4.5C7.8-14.6,36-28.9,36-28.9
			s-1.4-2.3-5.9-3.7S8.7-39.9,7.2-40.4c-1.5-0.5-4.9-1.7-8-1.2c-3.1,0.5-6.4,1.9-10.4,3.7c-4,1.8-20.6,9.3-22.6,10.4
			C-35.9-26.4-37.7-24.9-38.6-23.6z"/>
		<path class="st0" d="M38.1-25.9c0,0-27.1,13.8-31.7,16.2C1.9-7.2-1.1-6.3-2.1-4.3c-1.3,2.5,5.7,44.4,5.9,45.9c0,0,1,0.4,5.9-2.8
			c4.9-3.2,21.5-14.5,23.5-15.7s4.2-2.9,5.5-5.1s1.9-4.8,1.8-7.7c-0.1-2.8-1.2-26.7-1.2-29.4C39.1-21.7,38.1-25.9,38.1-25.9z"/>
	</g>
</symbol>
<g>
	<g>
		<path class="st1" d="M90.3,345.8c5.2-4.2,10.9-5.8,12.7-3.5c1.9,2.3-0.8,7.6-5.9,11.8c-5.2,4.2-10.9,5.8-12.7,3.5
			C82.5,355.3,85.1,350,90.3,345.8z"/>
		<path class="st1" d="M100.7,363.9c5.2-4.2,10.9-5.8,12.7-3.5c1.9,2.3-0.8,7.6-5.9,11.8c-5.2,4.2-10.9,5.8-12.7,3.5
			C92.8,373.4,95.5,368.1,100.7,363.9z"/>
		<path class="st1" d="M84.3,327.5c5.2-4.2,10.9-5.8,12.7-3.5c1.9,2.3-0.8,7.6-5.9,11.8c-5.2,4.2-10.9,5.8-12.7,3.5
			C76.5,337,79.2,331.7,84.3,327.5z"/>
		<path class="st1" d="M58.1,365.2c5.2-4.2,10.9-5.8,12.7-3.5c1.9,2.3-0.8,7.6-5.9,11.8c-5.2,4.2-10.9,5.8-12.7,3.5
			C50.3,374.7,52.9,369.4,58.1,365.2z"/>
		<path class="st1" d="M124,326.2c5.2-4.2,10.9-5.8,12.7-3.5c1.9,2.3-0.8,7.6-5.9,11.8c-5.2,4.2-10.9,5.8-12.7,3.5
			C116.1,335.7,118.8,330.4,124,326.2z"/>
		<path class="st1" d="M188,389.1c-0.1-6.5,3.1-11.8,7-11.9c4,0,7.3,5.2,7.3,11.7c0.1,6.5-3.1,11.8-7,11.9S188,395.6,188,389.1z"/>
		<path class="st1" d="M136.9,392.5c-0.1-6.5,3.1-11.8,7-11.9c4,0,7.3,5.2,7.3,11.7c0.1,6.5-3.1,11.8-7,11.9
			C140.2,404.3,136.9,399,136.9,392.5z"/>
		<path class="st1" d="M162.1,348.3c-0.1-6.5,3.1-11.8,7-11.9c4,0,7.3,5.2,7.3,11.7c0.1,6.5-3.1,11.8-7,11.9
			C165.5,360.1,162.2,354.8,162.1,348.3z"/>
		<path class="st1" d="M165.1,431.7c-0.1-6.5,3.1-11.8,7-11.9c4-0.1,7.3,5.2,7.3,11.7c0.1,6.5-3.1,11.8-7,11.9
			C168.4,443.4,165.1,438.2,165.1,431.7z"/>
		<path class="st1" d="M150.3,412.7c-0.1-6.5,3.1-11.8,7-11.9c4,0,7.3,5.2,7.3,11.7c0.1,6.5-3.1,11.8-7,11.9
			C153.7,424.5,150.4,419.2,150.3,412.7z"/>
		<path class="st1" d="M177.1,367.3c-0.1-6.5,3.1-11.8,7-11.9c4,0,7.3,5.2,7.3,11.7c0.1,6.5-3.1,11.8-7,11.9
			C180.4,379,177.1,373.8,177.1,367.3z"/>
		<path class="st1" d="M122.8,448.5c1.5-2.5,7.1-2,12.7,1.2c5.5,3.2,8.8,7.9,7.3,10.4c-1.5,2.5-7.1,2-12.7-1.2
			C124.6,455.7,121.3,451,122.8,448.5z"/>
		<path class="st1" d="M51.7,409.1c1.5-2.5,7.2-2,12.7,1.2c5.5,3.2,8.8,7.9,7.3,10.4c-1.5,2.5-7.2,2-12.7-1.2
			C53.5,416.4,50.3,411.7,51.7,409.1z"/>
	</g>
	<path class="st1" d="M236,285c-14.5,2.3-25.5,17.9-25.5,17.9s6-9.1,7.8-44.4c1.8-35.4-19.5-61.2-19.5-61.2
		c2.1,4.4,1.6,14.2,2.1,31.6c0.5,17.5-9.6,33.3-9.6,33.3c-23.4-21.6-28.4-55.6-30.7-76.8c-2.3-21.2,2.1-52.4,2.1-52.4
		c-9.4,7.7-16.7,20.7-21.8,32.3c-5,11.6-6,28.4-6,28.4c-11.2-14-9.2-42.8-6.2-57.5c3-14.7,8.3-37.2,6.7-57.2
		c-1.6-20-6.7-34.7-16.3-47.9c-9.6-13.3-18.8-17.5-18.8-17.5c7.8,5.5,11.2,20.6,13.3,40.2c2,19.6-11.4,39.4-15.5,46.6
		c-4.1,7.1-12.3,22.5-15.5,36.8c-3.2,14.2-2,30.6-2,30.6c-23.7-24.9-18.1-53.1-18.1-53.1s-5.6,8.3-8.5,26.1
		c-2.9,17.8,2.9,35,19.3,68.5c16.4,33.5,3.5,48.1,3.5,48.1c-12.9-8.3-17.5-15.7-24.9-30c-7.3-14.2-3.8-35.6-3.8-35.6
		c-8.2,8-13.4,27.9-13.4,35.6s0.9,18.1,8.8,38.9c7.9,20.8-2,33.5-2,33.5C36,278.4,19,273.9,19,273.9c14.9,22.5,2.3,59.3-1.8,75.6
		c-4.1,16.3-4.1,26.7-1.5,43.3c0.2,1.1,0.4,2.2,0.6,3.4c0,1,0,2,0.2,3c1.4,7.8,6.2,15.1,8.3,17.8c0.9,1.2,3.2,4.3,34.4,40.4l0.2,0.2
		c6.5,7.5,12.4,14.1,19.7,18.9c7.9,5.3,17.2,6.4,21.7,7l0.9,0.1c1.5,0.2,7,0.8,20,2.1c11.8,1.2,25.2,2.6,30.5,3.3
		c2.2,0.3,4.2,0.4,6.1,0.4c10.5,0,16.6-3.4,18.5-4.6c0.9-0.6,1.8-1.3,2.5-2.1c2.9-0.8,5.6-2.5,7.5-5c1.1-1.4,6.8-8.6,9.9-14.8
		c2.5-4.9,25.4-49.5,28-54.5c3.4-6.6,5.2-13.9,5.1-21.2c2.8-25-3.1-51.8-3.8-67.9C225.2,298.5,236,285,236,285z M33.3,383.2
		c1.7-3.2,31.6-43.6,35-48.3c3.4-4.6,7.9-11.2,11.7-14.6c3.8-3.4,7.5-5.4,11.3-6.4s56.8-7.9,59.6-8.4c2.8-0.5,8.8-0.2,11.1,0.8
		c0,0-46.4,71.6-48.3,74.3c-1.9,2.8-5.4,7.7-11.9,8c-6.5,0.3-70.2,0.1-70.2,0.1S31.7,386.4,33.3,383.2z M154,474.2
		c-9.9-1.2-47.1-4.9-50.3-5.4c-3.2-0.4-10.8-1-16.3-4.7c-5.5-3.7-10.6-9.2-16.6-16.2c-6-7-31-35.9-33.9-39.8
		c-2.8-3.9-5-8.3-5.6-11.5c0,0,63.9-0.1,67.3-0.2c3.5,0,7.3-0.2,10,1.5c2.8,1.7,11.4,12.4,15,17.3c3.7,4.9,44.8,57,44.8,57
		S163.9,475.4,154,474.2z M211.5,401.6c-2.7,5.3-25.6,49.7-28.2,54.8c-2.5,5-8.2,12-8.2,12s-39.4-50.1-45.9-58.7
		c-6.6-8.6-11.4-13.1-11.6-17.6c-0.4-5.9,49.9-79.5,51.6-82.1c0,0,2.2,0.2,8.8,10.5c6.6,10.4,28.2,46.4,30.8,50.5s5.4,9.3,5.9,14.5
		S214.3,396.3,211.5,401.6z"/>
</g>
<g id="New_Symbol_2">
	<g id="New_Symbol_1">
	</g>
</g>
</svg>
