<?xml version="1.0" encoding="utf-8"?>
<!-- Generator: Adobe Illustrator 22.0.0, SVG Export Plug-In . SVG Version: 6.00 Build 0)  -->
<svg version="1.1" id="Layer_1" xmlns="http://www.w3.org/2000/svg" xmlns:xlink="http://www.w3.org/1999/xlink" x="0px" y="0px"
	 viewBox="0 0 109.4 150" style="enable-background:new 0 0 109.4 150;" xml:space="preserve">
<style type="text/css">
	.st0{opacity:0.5;}
	.st1{fill:#13232F;}
	.st2{fill:#CB6120;}
</style>
<g class="st0">
	<path class="st1" d="M5.9,82.7c6.9,3.6,9.4,3.3,15-1.6c7.8,5.4,10.2,5.5,16.6-0.2c0.7,0.7,1.5,1.4,2.3,2c2.9,2.4,6.2,2.8,9.5,1.4
		c3.2-1.3,5.2-3.9,5.5-7.5c0.1-1.3,0.1-2.7,0.1-4c0-18.5,0-37,0-55.5c0-1.4,0-2.9,0.2-4.3c0.6-3.6,3.6-6,7.1-6
		c3.7,0.1,6.6,2.7,7,6.5c0.1,1,0.1,1.9,0.1,2.9c0,20.8-0.1,41.6,0.1,62.4c0,3.3-0.8,4.3-4.2,4.3C54.8,83.2,47.1,89.4,45.1,99
		c-0.3,1.4,0,2.9,0,4.3c0.4,0.1,0.7,0.1,1.1,0.2c0.3-1.2,0.6-2.3,0.8-3.5c1.7-8.9,8.2-14.4,17.2-14.7c3-0.1,6.1-0.3,9.1,0
		c4.1,0.4,7-1,9.8-4c5.3-5.6,12.4-6.8,18.9-3.8c1.3,0.6,2.4,1.5,3.8,2.4c-1,1.1-1.6,1.9-2.3,2.7c-9.9,9.9-19.8,19.8-29.8,29.8
		c-0.9,0.9-1.7,1.9-2.7,2.4c-5.5,2.7-6.2,7.3-5.8,12.7c0.4,4.7,0,9.4,0.1,14.1c0.1,2.6-1,3.3-3.4,3.3c-10.9-0.1-21.8-0.1-32.7,0
		c-2.4,0-3.2-0.8-3.2-3.2c0.1-6.3-0.1-12.6,0.1-18.9c0.1-2.6-0.9-4.1-3-5.6c-11.3-8-17.3-18.9-17.5-32.9C5.6,84,5.8,83.5,5.9,82.7z"
		/>
	<path class="st1" d="M52.9,61.8c0,4.6,0.1,9.2,0,13.8c-0.1,4.4-3.1,7.5-7.2,7.5c-4,0-7.2-3.1-7.2-7.5c-0.1-9.3-0.1-18.6,0-27.9
		c0-4.7,3.1-7.7,7.4-7.6c4.1,0.1,6.9,3.1,7,7.6C53,52.4,52.9,57.1,52.9,61.8z"/>
	<path class="st1" d="M36.5,63.7c0,3.9,0.1,7.7,0,11.6c-0.1,4.7-3,7.8-7.2,7.8c-4.2,0-7.1-3.1-7.2-7.9C22,67.5,22,59.8,22,52.1
		c0-4.8,2.9-7.9,7-8c4.2-0.1,7.3,3.2,7.4,8.1C36.5,56,36.5,59.9,36.5,63.7z"/>
	<path class="st1" d="M5.6,67.7c0-2.6-0.1-5.3,0-7.9c0.1-4.2,3-7.2,6.9-7.4c3.6-0.2,7.2,2.6,7.4,6.5c0.3,6,0.3,12,0,18
		c-0.2,3.9-3.7,6.5-7.5,6.3C8.6,82.9,5.8,80,5.6,76C5.5,73.2,5.6,70.4,5.6,67.7z"/>
</g>
<g>
	<path class="st2" d="M4.9,81.7c6.9,3.6,9.4,3.3,15-1.6c7.8,5.4,10.2,5.5,16.6-0.2c0.7,0.7,1.5,1.4,2.3,2c2.9,2.4,6.2,2.8,9.5,1.4
		c3.2-1.3,5.2-3.9,5.5-7.5c0.1-1.3,0.1-2.7,0.1-4c0-18.5,0-37,0-55.5c0-1.4,0-2.9,0.2-4.3c0.6-3.6,3.6-6,7.1-6
		c3.7,0.1,6.6,2.7,7,6.5c0.1,1,0.1,1.9,0.1,2.9c0,20.8-0.1,41.6,0.1,62.4c0,3.3-0.8,4.3-4.2,4.3C53.8,82.2,46.1,88.4,44.1,98
		c-0.3,1.4,0,2.9,0,4.3c0.4,0.1,0.7,0.1,1.1,0.2c0.3-1.2,0.6-2.3,0.8-3.5c1.7-8.9,8.2-14.4,17.2-14.7c3-0.1,6.1-0.3,9.1,0
		c4.1,0.4,7-1,9.8-4c5.3-5.6,12.4-6.8,18.9-3.8c1.3,0.6,2.4,1.5,3.8,2.4c-1,1.1-1.6,1.9-2.3,2.7c-9.9,9.9-19.8,19.8-29.8,29.8
		c-0.9,0.9-1.7,1.9-2.7,2.4c-5.5,2.7-6.2,7.3-5.8,12.7c0.4,4.7,0,9.4,0.1,14.1c0.1,2.6-1,3.3-3.4,3.3c-10.9-0.1-21.8-0.1-32.7,0
		c-2.4,0-3.2-0.8-3.2-3.2c0.1-6.3-0.1-12.6,0.1-18.9c0.1-2.6-0.9-4.1-3-5.6c-11.3-8-17.3-18.9-17.5-32.9C4.6,83,4.8,82.5,4.9,81.7z"
		/>
	<path class="st2" d="M51.9,60.8c0,4.6,0.1,9.2,0,13.8c-0.1,4.4-3.1,7.5-7.2,7.5c-4,0-7.2-3.1-7.2-7.5c-0.1-9.3-0.1-18.6,0-27.9
		c0-4.7,3.1-7.7,7.4-7.6c4.1,0.1,6.9,3.1,7,7.6C52,51.4,51.9,56.1,51.9,60.8z"/>
	<path class="st2" d="M35.5,62.7c0,3.9,0.1,7.7,0,11.6c-0.1,4.7-3,7.8-7.2,7.8c-4.2,0-7.1-3.1-7.2-7.9C21,66.5,21,58.8,21,51.1
		c0-4.8,2.9-7.9,7-8c4.2-0.1,7.3,3.2,7.4,8.1C35.5,55,35.5,58.9,35.5,62.7z"/>
	<path class="st2" d="M4.6,66.7c0-2.6-0.1-5.3,0-7.9c0.1-4.2,3-7.2,6.9-7.4c3.6-0.2,7.2,2.6,7.4,6.5c0.3,6,0.3,12,0,18
		c-0.2,3.9-3.7,6.5-7.5,6.3C7.6,81.9,4.8,79,4.6,75C4.5,72.2,4.6,69.4,4.6,66.7z"/>
</g>
</svg>
