<?xml version="1.0" encoding="utf-8"?>
<!-- Generator: Adobe Illustrator 22.0.0, SVG Export Plug-In . SVG Version: 6.00 Build 0)  -->
<svg version="1.1" id="Layer_1" xmlns="http://www.w3.org/2000/svg" xmlns:xlink="http://www.w3.org/1999/xlink" x="0px" y="0px"
	 viewBox="0 0 150 150" style="enable-background:new 0 0 150 150;" xml:space="preserve">
<style type="text/css">
	.st0{opacity:0.5;fill:#13232F;}
	.st1{fill:#CB6120;}
</style>
<path class="st0" d="M34.5,143.8c0-0.1,0-0.2,0-0.3 M34.5,143.5c0-0.6,0-1.2,0-1.7c0-2.9,0-2.9,2.9-2.8c1.1,0,1.3-0.3,1.3-1.4
	c0-10.1,0-20.1,0-30.2c0-0.9,0.2-1.2,1.2-1.2c4.3,0,8.6,0,12.8,0c1,0,1.4-0.2,1.5-1.3c0.1-3,2-4.7,5-4.8c3-0.1,5.6-1.3,7.5-3.6
	c4-4.9,2.4-11.9-2.6-14.6c-3.9-2.1-7.3-4.6-10.2-8c-4.2-4.8-7.2-10.3-9.7-16.1c-0.2-0.5-0.7-1.1-1.2-1.4
	C34.6,52,28.8,45.4,25.5,36.6c-1.6-4.4-2.5-8.9-2-13.5c0.5-4.1,4-7.4,8.1-7.7c1.2-0.1,2.5-0.1,3.7-0.1c1,0.1,1.4-0.2,1.3-1.3
	c-0.1-1.4,0-2.9,0-4.4c0-1.4,0-1.4,1.4-1.4c7.7,0,15.4,0,23.1,0c17.8,0,35.5,0,53.3,0c0.4,0,0.7,0,1.2,0.1c0,2,0,3.9,0,5.8
	c0,0.9,0.2,1.2,1.1,1.2c1.3-0.1,2.6,0,3.8,0.1c3.5,0.3,6.7,3.2,7.6,6.5c0.7,2.9,0.4,5.7-0.2,8.5c-2.1,11.4-8.3,19.9-18.4,25.7
	c-0.6,0.3-1.1,1-1.4,1.6c-1.7,4.1-3.7,8-6.3,11.7c-3.7,5.3-8,9.8-13.9,12.6c-0.5,0.2-0.9,0.6-1.3,0.9c-3,2.7-4.1,6.9-2.8,10.5
	c1.5,4.1,4.5,6.4,8.9,6.8c3.6,0.3,5,1.6,5.2,5.1c0.1,0.8,0.4,1.1,1.2,1.1c3.7,0,7.4,0,11.1,0c0.9,0,1.8,0,2.9,0c0,11,0,21.8,0,32.7
	c1.5,0,2.8,0,4.3,0c0,1.7,0,3.2,0,4.7 M97.2,119.1c-0.6,0-1.1,0-1.5,0c-5.1,0-10.1,0-15.2,0c-8,0-16,0-24,0c-0.9,0-1.1,0.3-1.1,1.2
	c0,3.1,0,6.3,0,9.4c0,1.4,0,1.4,1.4,1.4c8.2,0,16.4,0,24.6,0c4.9,0,9.8,0,14.6,0c0.5,0,1.1,0.1,1.1-0.7
	C97.2,126.6,97.2,122.9,97.2,119.1z M50.4,38.6c2.6-1.8,4.9-3.5,7.3-5.2c0.8-0.6,1.3-0.6,2,0c0.8,0.7,1.7,1.3,2.6,1.9
	c1.5,1,2.9,2.1,4.5,3.2c0-8.5,0-16.8,0-25.1c-5.5,0-10.9,0-16.4,0C50.4,21.7,50.4,30.1,50.4,38.6z M41.1,49.8
	c-2-6.7-3.2-13.2-3.8-19.8c-0.3-3-0.4-5.9-0.5-8.9c0-0.8-0.3-1.1-1.1-1.1c-1,0.1-2,0-3,0c-2.6,0.1-4.5,2.1-4.4,4.7
	c0.1,7.5,2.6,14.1,7.4,19.9C37.1,46.5,38.8,48.2,41.1,49.8z M115.4,19.9c-0.2,10-1.5,19.7-4.3,29.3c0.3-0.2,0.5-0.2,0.6-0.3
	c7.9-6.4,11.9-14.6,11.8-24.7c0-2.1-1.9-4.1-3.9-4.2C118.3,19.8,117,19.9,115.4,19.9z M101.7,45.1c0.1-0.2,0.2-0.2,0.2-0.3
	c2.4-8.4,3.8-16.9,4.1-25.7c0-0.6-0.2-0.7-0.8-0.7c-1,0-1.9,0-2.9,0c-0.9-0.1-1.1,0.2-1.2,1.1c-0.1,6-0.9,11.8-2.2,17.6
	c-0.5,2.2-1.1,4.4-1.6,6.6C98.9,44.2,100.3,44.6,101.7,45.1z M96.3,49c0,1.3,1.1,2.3,2.4,2.3c1.3,0,2.4-1.1,2.4-2.4
	c0-1.4-1.1-2.4-2.4-2.4C97.3,46.7,96.3,47.7,96.3,49z"/>
<path class="st1" d="M33.5,142.8c0-0.1,0-0.2,0-0.3 M33.5,142.5c0-0.6,0-1.2,0-1.7c0-2.9,0-2.9,2.9-2.8c1.1,0,1.3-0.3,1.3-1.4
	c0-10.1,0-20.1,0-30.2c0-0.9,0.2-1.2,1.2-1.2c4.3,0,8.6,0,12.8,0c1,0,1.4-0.2,1.5-1.3c0.1-3,2-4.7,5-4.8c3-0.1,5.6-1.3,7.5-3.6
	c4-4.9,2.4-11.9-2.6-14.6c-3.9-2.1-7.3-4.6-10.2-8c-4.2-4.8-7.2-10.3-9.7-16.1c-0.2-0.5-0.7-1.1-1.2-1.4
	C33.6,51,27.8,44.4,24.5,35.6c-1.6-4.4-2.5-8.9-2-13.5c0.5-4.1,4-7.4,8.1-7.7c1.2-0.1,2.5-0.1,3.7-0.1c1,0.1,1.4-0.2,1.3-1.3
	c-0.1-1.4,0-2.9,0-4.4c0-1.4,0-1.4,1.4-1.4c7.7,0,15.4,0,23.1,0c17.8,0,35.5,0,53.3,0c0.4,0,0.7,0,1.2,0.1c0,2,0,3.9,0,5.8
	c0,0.9,0.2,1.2,1.1,1.2c1.3-0.1,2.6,0,3.8,0.1c3.5,0.3,6.7,3.2,7.6,6.5c0.7,2.9,0.4,5.7-0.2,8.5c-2.1,11.4-8.3,19.9-18.4,25.7
	c-0.6,0.3-1.1,1-1.4,1.6c-1.7,4.1-3.7,8-6.3,11.7c-3.7,5.3-8,9.8-13.9,12.6c-0.5,0.2-0.9,0.6-1.3,0.9c-3,2.7-4.1,6.9-2.8,10.5
	c1.5,4.1,4.5,6.4,8.9,6.8c3.6,0.3,5,1.6,5.2,5.1c0.1,0.8,0.4,1.1,1.2,1.1c3.7,0,7.4,0,11.1,0c0.9,0,1.8,0,2.9,0c0,11,0,21.8,0,32.7
	c1.5,0,2.8,0,4.3,0c0,1.7,0,3.2,0,4.7 M96.2,118.1c-0.6,0-1.1,0-1.5,0c-5.1,0-10.1,0-15.2,0c-8,0-16,0-24,0c-0.9,0-1.1,0.3-1.1,1.2
	c0,3.1,0,6.3,0,9.4c0,1.4,0,1.4,1.4,1.4c8.2,0,16.4,0,24.6,0c4.9,0,9.8,0,14.6,0c0.5,0,1.1,0.1,1.1-0.7
	C96.2,125.6,96.2,121.9,96.2,118.1z M49.4,37.6c2.6-1.8,4.9-3.5,7.3-5.2c0.8-0.6,1.3-0.6,2,0c0.8,0.7,1.7,1.3,2.6,1.9
	c1.5,1,2.9,2.1,4.5,3.2c0-8.5,0-16.8,0-25.1c-5.5,0-10.9,0-16.4,0C49.4,20.7,49.4,29.1,49.4,37.6z M40.1,48.8
	c-2-6.7-3.2-13.2-3.8-19.8c-0.3-3-0.4-5.9-0.5-8.9c0-0.8-0.3-1.1-1.1-1.1c-1,0.1-2,0-3,0c-2.6,0.1-4.5,2.1-4.4,4.7
	c0.1,7.5,2.6,14.1,7.4,19.9C36.1,45.5,37.8,47.2,40.1,48.8z M114.4,18.9c-0.2,10-1.5,19.7-4.3,29.3c0.3-0.2,0.5-0.2,0.6-0.3
	c7.9-6.4,11.9-14.6,11.8-24.7c0-2.1-1.9-4.1-3.9-4.2C117.3,18.8,116,18.9,114.4,18.9z M100.7,44.1c0.1-0.2,0.2-0.2,0.2-0.3
	c2.4-8.4,3.8-16.9,4.1-25.7c0-0.6-0.2-0.7-0.8-0.7c-1,0-1.9,0-2.9,0c-0.9-0.1-1.1,0.2-1.2,1.1c-0.1,6-0.9,11.8-2.2,17.6
	c-0.5,2.2-1.1,4.4-1.6,6.6C97.9,43.2,99.3,43.6,100.7,44.1z M95.3,48c0,1.3,1.1,2.3,2.4,2.3c1.3,0,2.4-1.1,2.4-2.4
	c0-1.4-1.1-2.4-2.4-2.4C96.3,45.7,95.3,46.7,95.3,48z"/>
</svg>
