<?xml version="1.0" encoding="utf-8"?>
<!-- Generator: Adobe Illustrator 16.0.0, SVG Export Plug-In . SVG Version: 6.00 Build 0)  -->
<!DOCTYPE svg PUBLIC "-//W3C//DTD SVG 1.1//EN" "http://www.w3.org/Graphics/SVG/1.1/DTD/svg11.dtd">
<svg version="1.1" xmlns="http://www.w3.org/2000/svg" xmlns:xlink="http://www.w3.org/1999/xlink" x="0px" y="0px" width="50px"
	 height="50px" viewBox="0 0 50 50" enable-background="new 0 0 50 50" xml:space="preserve">
<g id="Layer_2">
	<path d="M45,40c0,2.762-2.238,5-5,5H10c-2.761,0-5-2.238-5-5V10c0-2.761,2.239-5,5-5h30c2.762,0,5,2.239,5,5V40z"/>
</g>
<g id="_x36_" display="none">
	<g display="inline">
		<g>
			<circle fill="#C23235" cx="15.708" cy="25" r="3.25"/>
			<circle fill="#C23235" cx="15.708" cy="15.75" r="3.25"/>
			<circle fill="#C23235" cx="15.708" cy="34.25" r="3.25"/>
		</g>
		<g>
			<circle fill="#C23235" cx="34.209" cy="25" r="3.25"/>
			<circle fill="#C23235" cx="34.209" cy="15.75" r="3.25"/>
			<circle fill="#C23235" cx="34.209" cy="34.25" r="3.25"/>
		</g>
		<g>
			<circle fill="#C23235" cx="24.959" cy="25" r="3.25"/>
			<circle fill="#C23235" cx="24.959" cy="15.75" r="3.25"/>
			<circle fill="#C23235" cx="24.958" cy="34.25" r="3.25"/>
		</g>
	</g>
</g>
<g id="_x35_" display="none">
	<circle display="inline" fill="#C23235" cx="15.708" cy="15.75" r="3.25"/>
	<circle display="inline" fill="#C23235" cx="15.708" cy="34.25" r="3.25"/>
	<circle display="inline" fill="#C23235" cx="34.209" cy="15.75" r="3.25"/>
	<circle display="inline" fill="#C23235" cx="34.209" cy="34.25" r="3.25"/>
	<circle display="inline" fill="#C23235" cx="24.959" cy="25" r="3.25"/>
</g>
<g id="_x34_" display="none">
	<g display="inline">
		<g>
			<circle fill="#C23235" cx="15.708" cy="15.75" r="3.25"/>
			<circle fill="#C23235" cx="15.708" cy="34.25" r="3.25"/>
		</g>
		<g>
			<circle fill="#C23235" cx="34.209" cy="15.75" r="3.25"/>
			<circle fill="#C23235" cx="34.209" cy="34.25" r="3.25"/>
		</g>
	</g>
</g>
<g id="_x33_">
	<g>
		<g>
			<circle fill="#C23235" cx="24.959" cy="25" r="3.25"/>
			<circle fill="#C23235" cx="24.959" cy="15.75" r="3.25"/>
			<circle fill="#C23235" cx="24.958" cy="34.25" r="3.25"/>
		</g>
	</g>
</g>
<g id="_x32_" display="none">
	<circle display="inline" fill="#C23235" cx="24.959" cy="15.75" r="3.25"/>
	<circle display="inline" fill="#C23235" cx="24.958" cy="34.25" r="3.25"/>
</g>
<g id="_x31_" display="none">
	<g display="inline">
		<g>
			<circle fill="#C23235" cx="24.959" cy="25" r="3.25"/>
		</g>
	</g>
</g>
</svg>
