<?xml version="1.0" encoding="utf-8"?>
<!-- Generator: Adobe Illustrator 16.0.0, SVG Export Plug-In . SVG Version: 6.00 Build 0)  -->
<!DOCTYPE svg PUBLIC "-//W3C//DTD SVG 1.1//EN" "http://www.w3.org/Graphics/SVG/1.1/DTD/svg11.dtd">
<svg version="1.1" xmlns="http://www.w3.org/2000/svg" xmlns:xlink="http://www.w3.org/1999/xlink" x="0px" y="0px" width="250px"
	 height="500px" viewBox="0 0 250 500" enable-background="new 0 0 250 500" xml:space="preserve">
<symbol  id="New_Symbol_1" viewBox="-47.47 -48.72 94.94 97.44">
	<g>
		
			<path fill="#FFFFFF" stroke="#000000" stroke-width="14" stroke-linecap="round" stroke-linejoin="round" stroke-miterlimit="10" d="
			M-40.072-20.11c0,0-0.467,1.023-0.389,2.745c0.079,1.722,4.954,25.241,5.502,27.923c0.545,2.682,1.201,6.44,2.159,8.673
			c0.956,2.231,2.183,3.823,3.604,5.032S-6.162,39.076-5.048,39.827c1.116,0.753,3.782,1.879,4.976,1.893
			c0,0-5.757-40.307-6.027-41.887c-0.27-1.58-0.791-4.43-3.549-5.844C-12.406-7.426-40.072-20.11-40.072-20.11z"/>
		
			<path fill="#FFFFFF" stroke="#000000" stroke-width="14" stroke-linecap="round" stroke-linejoin="round" stroke-miterlimit="10" d="
			M-38.578-23.606c0,0,27.641,12.852,29.139,13.561s3.115,1.537,4.646,1.361c1.532-0.176,7.416-3.104,9.988-4.488
			c2.57-1.383,30.824-15.723,30.824-15.723s-1.42-2.277-5.932-3.746s-21.391-7.293-22.85-7.742c-1.458-0.45-4.885-1.711-8.012-1.229
			c-3.128,0.482-6.424,1.872-10.434,3.689c-4.012,1.816-20.632,9.337-22.639,10.443C-35.854-26.374-37.684-24.895-38.578-23.606z"/>
		
			<path fill="#FFFFFF" stroke="#000000" stroke-width="14" stroke-linecap="round" stroke-linejoin="round" stroke-miterlimit="10" d="
			M38.096-25.862c0,0-27.09,13.816-31.667,16.227C1.854-7.228-1.113-6.253-2.15-4.327c-1.334,2.482,5.701,44.445,5.92,45.934
			c0,0,0.997,0.379,5.932-2.785c4.934-3.166,21.52-14.461,23.482-15.706s4.221-2.935,5.455-5.083s1.947-4.83,1.816-7.678
			c-0.129-2.848-1.152-26.681-1.23-29.37C39.146-21.704,38.096-25.862,38.096-25.862z"/>
	</g>
	<g>
		<path fill="#FFFFFF" d="M-40.072-20.11c0,0-0.467,1.023-0.389,2.745c0.079,1.722,4.954,25.241,5.502,27.923
			c0.545,2.682,1.201,6.44,2.159,8.673c0.956,2.231,2.183,3.823,3.604,5.032S-6.162,39.076-5.048,39.827
			c1.116,0.753,3.782,1.879,4.976,1.893c0,0-5.757-40.307-6.027-41.887c-0.27-1.58-0.791-4.43-3.549-5.844
			C-12.406-7.426-40.072-20.11-40.072-20.11z"/>
		<path fill="#FFFFFF" d="M-38.578-23.606c0,0,27.641,12.852,29.139,13.561s3.115,1.537,4.646,1.361
			c1.532-0.176,7.416-3.104,9.988-4.488c2.57-1.383,30.824-15.723,30.824-15.723s-1.42-2.277-5.932-3.746s-21.391-7.293-22.85-7.742
			c-1.458-0.45-4.885-1.711-8.012-1.229c-3.128,0.482-6.424,1.872-10.434,3.689c-4.012,1.816-20.632,9.337-22.639,10.443
			C-35.854-26.374-37.684-24.895-38.578-23.606z"/>
		<path fill="#FFFFFF" d="M38.096-25.862c0,0-27.09,13.816-31.667,16.227C1.854-7.228-1.113-6.253-2.15-4.327
			c-1.334,2.482,5.701,44.445,5.92,45.934c0,0,0.997,0.379,5.932-2.785c4.934-3.166,21.52-14.461,23.482-15.706
			s4.221-2.935,5.455-5.083s1.947-4.83,1.816-7.678c-0.129-2.848-1.152-26.681-1.23-29.37
			C39.146-21.704,38.096-25.862,38.096-25.862z"/>
	</g>
	<g>
		<path d="M-23.27,10.263c1.389,2.86,3.549,4.677,4.822,4.059c1.275-0.619,1.182-3.439-0.207-6.3
			c-1.39-2.86-3.549-4.679-4.822-4.059C-24.751,4.581-24.659,7.401-23.27,10.263z"/>
		<path d="M-15.147,4.495c1.39,2.859,3.55,4.676,4.822,4.059c1.276-0.619,1.183-3.439-0.206-6.301
			c-1.391-2.86-3.549-4.678-4.822-4.059C-16.629-1.187-16.537,1.634-15.147,4.495z"/>
		<path d="M-29.506,16.999c1.39,2.859,3.551,4.676,4.822,4.058c1.276-0.618,1.183-3.438-0.207-6.3
			c-1.389-2.86-3.548-4.678-4.822-4.059C-30.986,11.317-30.895,14.138-29.506,16.999z"/>
		<path d="M-33.318-4.624c1.39,2.86,3.551,4.678,4.822,4.059c1.276-0.619,1.184-3.438-0.207-6.299
			c-1.389-2.861-3.548-4.68-4.822-4.06C-34.799-10.306-34.707-7.484-33.318-4.624z"/>
		<path d="M-12.594,25.472c1.39,2.86,3.551,4.677,4.822,4.059c1.276-0.619,1.183-3.439-0.207-6.299
			c-1.389-2.861-3.548-4.679-4.822-4.059C-14.074,19.79-13.982,22.61-12.594,25.472z"/>
		<path d="M27.727,11.065c-1.34,2.805-1.039,5.744,0.67,6.561c1.713,0.817,4.188-0.794,5.525-3.602
			c1.344-2.807,1.043-5.744-0.668-6.561C31.543,6.646,29.068,8.259,27.727,11.065z"/>
		<path d="M17.664,5.507c-1.342,2.807-1.039,5.744,0.67,6.563c1.713,0.816,4.186-0.795,5.525-3.603
			c1.342-2.806,1.043-5.744-0.67-6.561C21.479,1.089,19.004,2.7,17.664,5.507z"/>
		<path d="M6.281-0.676C4.941,2.13,5.242,5.068,6.953,5.886c1.711,0.816,4.184-0.795,5.525-3.603
			c1.342-2.806,1.041-5.744-0.67-6.562C10.098-5.095,7.623-3.483,6.281-0.676z"/>
		<path d="M8.369,23.538c-1.342,2.805-1.04,5.744,0.67,6.561c1.713,0.817,4.186-0.793,5.525-3.602
			c1.342-2.807,1.043-5.744-0.668-6.561C12.184,19.118,9.709,20.731,8.369,23.538z"/>
		<path d="M26.34-11.995C25-9.189,25.301-6.251,27.012-5.435c1.711,0.818,4.186-0.794,5.525-3.602
			c1.342-2.806,1.041-5.744-0.67-6.561C30.156-16.414,27.682-14.802,26.34-11.995z"/>
		<path d="M28.162-0.632c-1.342,2.807-1.039,5.744,0.67,6.562c1.713,0.817,4.186-0.794,5.525-3.602
			c1.344-2.807,1.043-5.745-0.668-6.562C31.977-5.05,29.504-3.438,28.162-0.632z"/>
		<path d="M7.406,11.175c-1.341,2.806-1.039,5.744,0.672,6.561c1.711,0.818,4.184-0.793,5.525-3.602
			c1.342-2.807,1.043-5.744-0.67-6.561C11.223,6.756,8.748,8.368,7.406,11.175z"/>
		<path d="M16.146-6.743c-1.34,2.807-1.039,5.744,0.672,6.562c1.713,0.817,4.186-0.794,5.525-3.602
			c1.342-2.806,1.043-5.745-0.67-6.562C19.963-11.161,17.488-9.55,16.146-6.743z"/>
		<path d="M18.641,18.325c-1.342,2.806-1.039,5.744,0.67,6.561c1.713,0.818,4.186-0.793,5.525-3.602
			c1.344-2.807,1.043-5.744-0.668-6.561C22.455,13.906,19.98,15.519,18.641,18.325z"/>
		<path d="M11.412-27.738c0.135,1.399,2.697,2.3,5.727,2.009c3.029-0.289,5.375-1.659,5.24-3.059s-2.697-2.299-5.727-2.009
			S11.279-29.138,11.412-27.738z"/>
		<path d="M-27.277-24.93c0.135,1.399,2.698,2.3,5.726,2.01c3.03-0.29,5.375-1.66,5.24-3.06c-0.134-1.398-2.698-2.299-5.726-2.009
			S-27.41-26.329-27.277-24.93z"/>
	</g>
</symbol>
<symbol  id="New_Symbol_2" viewBox="-65.528 -139.53 131.055 279.06">
	<path d="M-14.646,139.53c0,0,5.416-2.473,11.104-10.303c5.688-7.831,8.668-16.486,9.616-28.301
		c0.947-11.815-2.167-25.141-3.928-33.797c-1.76-8.656-2.979-25.69,3.657-33.934c0,0,0.542,9.892,3.521,16.761
		c2.979,6.869,7.313,14.563,12.864,19.096c0,0-2.57-18.41-1.216-30.912C22.325,25.639,25.307,5.583,39.12-7.192
		c0,0,5.958,9.341,5.688,19.645c-0.272,10.303-0.002,16.074-1.221,18.684c0,0,12.597-15.251,11.514-36.133
		c-1.084-20.882-4.604-26.24-4.604-26.24s6.499,9.206,15.031,10.578c0,0-6.364-7.966-5.822-20.331
		c0.48-10.965,5.009-30.25,1.115-46.738c-0.497-2.103-4.448-3.759-5.245-5.747c-7.042-17.586-11.142-18.353-37.007-28.106
		c-25.865-9.754-44.73-4.337-57.46,7.34c-10.654,9.772-21.87,14.965-24.437,24.646c-0.5,1.887-0.872,3.652-1.125,5.251
		c-1.553,9.808-1.552,15.935,0.864,25.564c2.416,9.632,9.838,31.345,1.036,44.65c0,0,10.011-2.625,13.118-15.231
		c0,0,5.869,7.527,1.208,19.784c-4.66,12.257-5.178,18.385-5.178,22.938s3.108,16.284,7.94,21.013c0,0-2.071-12.607,2.244-21.013
		c4.315-8.404,7.076-12.782,14.671-17.685c0,0,7.594,8.581-2.071,28.366c-9.666,19.786-13.118,29.942-11.392,40.449
		c1.726,10.506,5.006,15.408,5.006,15.408s-3.28-16.635,10.702-31.343c0,0-0.69,9.631,1.208,18.036
		c1.898,8.404,6.73,17.509,9.147,21.711s10.356,15.934,9.147,27.491C-8.012,127.35-10.061,136.302-14.646,139.53z"/>
	
		<use xlink:href="#New_Symbol_1"  width="94.94" height="97.44" id="XMLID_4_" x="-47.47" y="-48.72" transform="matrix(1.1225 -0.5189 0.5189 1.1225 0.3032 -80.1182)" overflow="visible"/>
</symbol>
<g id="fire">
</g>
<g id="dices">
	
		<use xlink:href="#New_Symbol_2"  width="131.055" height="279.06" x="-65.528" y="-139.53" transform="matrix(1.7699 0 0 -1.7699 125.0005 250)" overflow="visible"/>
</g>
</svg>
